<?xml version="1.0" encoding="UTF-8" standalone="no"?>
<svg
   xmlns:dc="http://purl.org/dc/elements/1.1/"
   xmlns:cc="http://creativecommons.org/ns#"
   xmlns:rdf="http://www.w3.org/1999/02/22-rdf-syntax-ns#"
   xmlns:svg="http://www.w3.org/2000/svg"
   xmlns="http://www.w3.org/2000/svg"
   xmlns:sodipodi="http://sodipodi.sourceforge.net/DTD/sodipodi-0.dtd"
   xmlns:inkscape="http://www.inkscape.org/namespaces/inkscape"
   id="svg870"
   version="1.1"
   viewBox="0 0 162.53544 14.7836"
   height="55.875027"
   width="614.30713"
   sodipodi:docname="hmi-lab-aau.svg"
   inkscape:version="0.92.5 (2060ec1f9f, 2020-04-08)">
  <sodipodi:namedview
     pagecolor="#ffffff"
     bordercolor="#666666"
     borderopacity="1"
     objecttolerance="10"
     gridtolerance="10"
     guidetolerance="10"
     inkscape:pageopacity="0"
     inkscape:pageshadow="2"
     inkscape:window-width="1920"
     inkscape:window-height="1001"
     id="namedview9"
     showgrid="false"
     inkscape:zoom="1.6509627"
     inkscape:cx="263.62514"
     inkscape:cy="29.522071"
     inkscape:window-x="-9"
     inkscape:window-y="-9"
     inkscape:window-maximized="1"
     inkscape:current-layer="svg870"
     inkscape:snap-global="false" />
  <title
     id="title1436">HMI Lab Logo</title>
  <defs
     id="defs864">
    <clipPath
       id="clip1">
      <path
         inkscape:connector-curvature="0"
         d="m 36,75 h 5 v 4.789063 h -5 z m 0,0"
         id="path2" />
    </clipPath>
    <clipPath
       id="clip2">
      <path
         inkscape:connector-curvature="0"
         d="m 42,74 h 5 v 5.789063 h -5 z m 0,0"
         id="path5" />
    </clipPath>
    <clipPath
       id="clip3">
      <path
         inkscape:connector-curvature="0"
         d="m 73,50 h 5.101563 v 5 H 73 Z m 0,0"
         id="path8" />
    </clipPath>
  </defs>
  <metadata
     id="metadata867">
    <rdf:RDF>
      <cc:Work
         rdf:about="">
        <dc:format>image/svg+xml</dc:format>
        <dc:type
           rdf:resource="http://purl.org/dc/dcmitype/StillImage" />
        <dc:title>HMI Lab Logo</dc:title>
      </cc:Work>
    </rdf:RDF>
  </metadata>
  <g
     id="g920"
     transform="translate(21.086537,-0.02828726)">
    <g
       id="layer1"
       transform="matrix(0.54109965,0,0,0.54109965,194.51338,-126.01276)">
      <path
         inkscape:connector-curvature="0"
         style="fill:#000000;fill-opacity:1;fill-rule:nonzero;stroke:none;stroke-width:0.63203764"
         d="m -359.47793,250.72568 c 0,-0.0371 0.0396,-0.0371 0.0396,-0.0371 h 0.53081 c 0,0 0.0371,0 0.0371,0.0371 v 2.61703 c 0,0.0394 -0.0371,0.0394 -0.0371,0.0394 h -0.53081 c 0,0 -0.0396,0 -0.0396,-0.0394 z m 1.66897,0 c 0,-0.0371 0.0396,-0.0371 0.0396,-0.0371 h 0.49131 c 0.0396,0 0.0396,0 0.0765,0.0371 l 0.94806,1.70847 h 0.0371 v -1.70847 c 0,-0.0371 0,-0.0371 0.0396,-0.0371 h 0.45428 c 0,0 0.0371,0 0.0371,0.0371 v 2.61703 c 0,0.0394 -0.0371,0.0394 -0.0371,0.0394 h -0.49379 c -0.0371,0 -0.0371,0 -0.074,-0.0394 l -0.94806,-1.70602 h -0.0396 v 1.70602 c 0,0.0394 0,0.0394 -0.0371,0.0394 h -0.45428 c 0,0 -0.0396,0 -0.0396,-0.0394 z m 4.09591,2.69357 c -0.11359,0 -0.19011,0 -0.30368,-0.0371 -0.11359,0 -0.19011,-0.0394 -0.30367,-0.0765 -0.074,-0.0371 -0.15068,-0.0765 -0.22715,-0.11358 -0.0765,-0.0396 -0.15067,-0.0765 -0.1901,-0.15301 -0.0371,0 -0.0371,-0.0371 0,-0.0371 l 0.30367,-0.38022 h 0.0396 c 0.11359,0.0765 0.18763,0.15301 0.3012,0.19011 0.153,0.0765 0.26665,0.11359 0.41725,0.11359 0.153,0 0.26664,-0.0371 0.34318,-0.11359 0.074,-0.0371 0.11359,-0.11359 0.11359,-0.22714 0,-0.0765 -0.0396,-0.15067 -0.11359,-0.19011 -0.0394,-0.0371 -0.153,-0.074 -0.30368,-0.11359 h -0.153 c -0.30368,-0.0371 -0.49131,-0.15067 -0.64439,-0.26417 -0.15067,-0.11358 -0.22713,-0.30367 -0.22713,-0.57032 0,-0.11358 0.0371,-0.22714 0.0765,-0.34071 0.0371,-0.0765 0.11358,-0.19009 0.1901,-0.26664 0.074,-0.0371 0.18764,-0.11359 0.30121,-0.15067 0.11609,-0.0371 0.26664,-0.0765 0.38021,-0.0765 0.19011,0 0.38022,0.0396 0.53082,0.0765 0.153,0.0765 0.30368,0.15067 0.41724,0.22715 v 0.0394 l -0.22713,0.37774 c -0.0371,0.0396 -0.0371,0.0396 -0.0765,0 -0.11359,-0.0371 -0.19011,-0.11359 -0.30368,-0.15068 -0.11359,-0.0394 -0.22714,-0.0394 -0.34071,-0.0394 -0.11359,0 -0.19011,0.0394 -0.26417,0.0765 -0.0396,0.0765 -0.0765,0.11359 -0.0765,0.22714 0,0.0765 0.0371,0.11359 0.0765,0.19011 0.074,0.0371 0.18763,0.0765 0.34071,0.11359 h 0.15067 c 0.26664,0.0371 0.49378,0.11358 0.64438,0.26664 0.11359,0.11359 0.19009,0.30368 0.19009,0.56785 0,0.11359 0,0.22714 -0.0371,0.34071 -0.0765,0.0765 -0.11359,0.1901 -0.22712,0.26664 -0.0765,0.0765 -0.19013,0.11359 -0.34319,0.15068 -0.11358,0.0765 -0.26417,0.0765 -0.45427,0.0765 z m 2.57999,-0.0371 c -0.0396,0 -0.0396,0 -0.0396,-0.0394 v -2.16028 h -0.72092 c 0,0 -0.0371,0 -0.0371,-0.0396 v -0.41725 c 0,-0.0371 0.0371,-0.0371 0.0371,-0.0371 h 2.00969 c 0.0396,0 0.0396,0 0.0396,0.0371 v 0.41725 c 0,0.0396 0,0.0396 -0.0396,0.0396 h -0.68142 v 2.16028 c 0,0.0394 -0.0371,0.0394 -0.0371,0.0394 z m 2.19732,-2.65654 c 0,-0.0371 0,-0.0371 0.0396,-0.0371 h 0.49131 c 0.0396,0 0.0396,0 0.0396,0.0371 v 2.61703 c 0,0.0394 0,0.0394 -0.0396,0.0394 h -0.49131 c -0.0396,0 -0.0396,0 -0.0396,-0.0394 z m 2.27632,2.65654 c -0.0371,0 -0.0371,0 -0.0371,-0.0394 v -2.12325 c 0,0 0,-0.0371 -0.0394,-0.0371 h -0.68142 c -0.0394,0 -0.0394,0 -0.0394,-0.0396 v -0.41725 c 0,-0.0371 0,-0.0371 0.0394,-0.0371 h 2.00969 c 0.0371,0 0.0371,0 0.0371,0.0371 v 0.41725 c 0,0.0396 0,0.0396 -0.0371,0.0396 h -0.68389 c -0.0371,0 -0.0371,0.0371 -0.0371,0.0371 v 2.12325 c 0,0.0394 0,0.0394 -0.0371,0.0394 z m 3.22438,0.0371 c -0.153,0 -0.30367,0 -0.41724,-0.0765 -0.15301,-0.0371 -0.26665,-0.11359 -0.34317,-0.19011 -0.074,-0.074 -0.15067,-0.18763 -0.22714,-0.3012 -0.0371,-0.153 -0.074,-0.30368 -0.074,-0.45675 v -1.66897 c 0,-0.0371 0.0371,-0.0371 0.0371,-0.0371 h 0.53081 c 0,0 0.0371,0 0.0371,0.0371 v 1.66897 c 0,0.153 0.0396,0.30367 0.11358,0.38021 0.0765,0.0765 0.19011,0.11359 0.34319,0.11359 0.11359,0 0.22714,-0.0371 0.30366,-0.11359 0.074,-0.0765 0.15067,-0.22714 0.15067,-0.38021 v -1.66897 c 0,-0.0371 0,-0.0371 0.0371,-0.0371 h 0.49376 c 0.0371,0 0.0371,0 0.0371,0.0371 v 1.66897 c 0,0.153 -0.0371,0.30367 -0.074,0.45675 -0.0394,0.11358 -0.11358,0.22714 -0.22961,0.3012 -0.074,0.0765 -0.18763,0.153 -0.3012,0.19011 -0.153,0.0765 -0.26665,0.0765 -0.41725,0.0765 z m 2.69109,-0.0371 c -0.0371,0 -0.0371,0 -0.0371,-0.0394 v -2.12325 c 0,0 0,-0.0371 -0.0394,-0.0371 h -0.68139 c 0,0 -0.0371,0 -0.0371,-0.0396 v -0.41725 c 0,-0.0371 0.0371,-0.0371 0.0371,-0.0371 h 2.00967 c 0.0371,0 0.0371,0 0.0371,0.0371 v 0.41725 c 0,0.0396 0,0.0396 -0.0371,0.0396 h -0.68142 l -0.0396,0.0371 v 2.12325 c 0,0.0394 0,0.0394 -0.0371,0.0394 z m 3.7157,-2.65654 c 0,-0.0371 0,-0.0371 0.0394,-0.0371 h 1.706 c 0.0371,0 0.0371,0 0.0371,0.0371 v 0.41725 c 0,0.0396 0,0.0396 -0.0371,0.0396 h -1.13815 c -0.0371,0 -0.0371,0 -0.0371,0.0371 v 0.56783 c 0,0 0,0 0.0371,0 h 0.94807 c 0.0396,0 0.0396,0.0396 0.0396,0.0396 v 0.41725 c 0,0.0371 0,0.0371 -0.0396,0.0371 h -0.94807 c -0.0371,0 -0.0371,0.0394 -0.0371,0.0394 v 1.02213 c 0,0.0394 0,0.0394 -0.0371,0.0394 h -0.49378 c -0.0394,0 -0.0394,0 -0.0394,-0.0394 z m 3.7552,2.69357 c -0.22714,0 -0.41725,-0.0371 -0.60735,-0.15068 -0.18764,-0.11609 -0.30368,-0.26664 -0.37774,-0.49378 0,-0.0396 -0.0396,-0.11359 -0.0396,-0.153 0,-0.0371 0,-0.074 0,-0.15068 -0.0371,-0.0371 -0.0371,-0.11358 -0.0371,-0.1901 0,-0.0765 0,-0.15068 0,-0.26416 0,-0.0765 0,-0.19012 0,-0.26664 0,-0.0371 0,-0.11359 0.0371,-0.19011 0,-0.0371 0,-0.074 0,-0.15067 0,-0.0371 0.0396,-0.0765 0.0396,-0.11359 0.074,-0.22714 0.1901,-0.38021 0.37774,-0.49379 0.1901,-0.11358 0.38021,-0.1901 0.60735,-0.1901 0.22714,0 0.45428,0.0765 0.64437,0.1901 0.153,0.11359 0.26664,0.26665 0.34071,0.49379 0.0396,0.0371 0.0396,0.0765 0.0396,0.11359 0.0371,0.0765 0.0371,0.11358 0.0371,0.15067 0,0.0765 0,0.153 0,0.19011 0,0.0765 0,0.19009 0,0.26664 0,0.11359 0,0.18762 0,0.26416 0,0.0765 0,0.153 0,0.1901 0,0.0765 0,0.11359 -0.0371,0.15068 0,0.0396 0,0.11359 -0.0396,0.153 -0.074,0.22714 -0.18764,0.37774 -0.34071,0.49378 -0.19009,0.11359 -0.41723,0.15068 -0.64437,0.15068 z m 0,-0.53082 c 0.11359,0 0.22714,0 0.26664,-0.0765 0.074,-0.0371 0.15068,-0.11359 0.15068,-0.19011 0.0371,-0.0371 0.0371,-0.074 0.0371,-0.11358 0,0 0,-0.0371 0,-0.074 0,-0.0765 0.0394,-0.11359 0.0394,-0.19011 0,-0.0396 0,-0.11358 0,-0.22712 0,-0.0765 0,-0.153 0,-0.22963 0,-0.0371 -0.0394,-0.11358 -0.0394,-0.15067 0,-0.0371 0,-0.0765 0,-0.11359 0,-0.0371 0,-0.0371 -0.0371,-0.0765 0,-0.074 -0.0765,-0.15067 -0.15068,-0.22714 -0.0396,-0.0371 -0.153,-0.0765 -0.26664,-0.0765 -0.11359,0 -0.19011,0.0396 -0.26417,0.0765 -0.0765,0.0765 -0.11359,0.153 -0.153,0.22714 0,0.0394 0,0.0394 -0.0371,0.0765 0,0.0371 0,0.0765 0,0.11359 0,0.0371 0,0.11359 0,0.15067 0,0.0765 0,0.15301 0,0.22963 0,0.11359 0,0.18762 0,0.22712 0,0.0765 0,0.11359 0,0.19011 0,0.0371 0,0.074 0,0.074 0.0371,0.0394 0.0371,0.0765 0.0371,0.11358 0.0394,0.0765 0.0765,0.15301 0.153,0.19011 0.074,0.0765 0.15067,0.0765 0.26417,0.0765 z m 3.60211,0.49379 c -0.0371,0 -0.074,0 -0.074,-0.0394 l -0.45673,-0.98509 h -0.37774 v 0.98509 c 0,0.0394 -0.0396,0.0394 -0.0765,0.0394 h -0.49389 c -0.0371,0 -0.0371,0 -0.0371,-0.0394 v -2.61703 c 0,-0.0371 0,-0.0371 0.0371,-0.0371 h 1.10111 c 0.11359,0 0.26418,0 0.37775,0.0371 0.0765,0.0396 0.1901,0.11359 0.26664,0.19011 0.0765,0.0765 0.15067,0.153 0.19011,0.26664 0.0371,0.11359 0.074,0.22714 0.074,0.34071 0,0.15067 -0.0371,0.30366 -0.15067,0.45428 -0.0765,0.11359 -0.19011,0.22712 -0.34071,0.30366 l 0.53081,1.06163 c 0,0 0,0 0,0.0394 0,0 0,0 -0.0394,0 z m -0.41723,-1.51837 c 0.11359,0 0.19009,-0.0371 0.26664,-0.11359 0.0765,-0.0371 0.0765,-0.15067 0.0765,-0.22714 0,-0.11358 0,-0.1901 -0.0765,-0.26664 -0.0765,-0.0371 -0.153,-0.074 -0.26664,-0.074 h -0.49131 c 0,0 0,0 0,0.0371 v 0.64439 z m 4.20946,-1.13817 c 0,-0.0371 0,-0.0371 0.0396,-0.0371 h 0.49131 c 0.0394,0 0.0394,0 0.0394,0.0371 l 0.94806,2.61703 c 0,0.0394 0,0.0394 -0.0396,0.0394 h -0.53081 c 0,0 -0.0371,0 -0.0371,-0.0394 l -0.15067,-0.49131 h -0.94806 l -0.153,0.49131 c 0,0.0394 -0.0371,0.0394 -0.0765,0.0394 h -0.49132 c -0.0396,0 -0.0396,0 -0.0396,-0.0394 z m 0.60735,1.63193 -0.30367,-0.94804 h -0.0371 l -0.30366,0.94804 z m 3.26141,1.02461 c 0,0 -0.0371,0 -0.0371,-0.0394 l -0.45675,-0.98509 h -0.4172 v 0.98509 c 0,0.0394 0,0.0394 -0.0371,0.0394 h -0.49378 c -0.0371,0 -0.0371,0 -0.0371,-0.0394 v -2.61703 c 0,-0.0371 0,-0.0371 0.0371,-0.0371 h 1.06164 c 0.153,0 0.26663,0 0.38021,0.0371 0.11358,0.0396 0.22714,0.11359 0.30367,0.19011 0.0765,0.0765 0.15068,0.153 0.19011,0.26664 0.0371,0.11359 0.074,0.22714 0.074,0.34071 0,0.15067 -0.0371,0.30366 -0.15067,0.45428 -0.0765,0.11359 -0.19011,0.22712 -0.34071,0.30366 l 0.53082,1.06163 c 0,0 0,0 0,0.0394 0,0 0,0 -0.0396,0 z m -0.38021,-1.51837 c 0.11611,0 0.19012,-0.0371 0.26665,-0.11359 0.0371,-0.0371 0.0765,-0.15067 0.0765,-0.22714 0,-0.11358 -0.0396,-0.1901 -0.0765,-0.26664 -0.0765,-0.0371 -0.15068,-0.074 -0.26665,-0.074 h -0.49131 c 0,0 -0.0396,0 -0.0396,0.0371 v 0.60734 l 0.0396,0.0371 z m 1.93561,-1.13817 c 0,-0.0371 0.0371,-0.0371 0.0371,-0.0371 h 0.5308 c 0.0394,0 0.0394,0 0.0394,0.0371 v 1.17766 l 0.90856,-1.17766 c 0,-0.0371 0.0396,-0.0371 0.0396,-0.0371 h 0.60487 v 0.0371 l -0.83448,1.0246 0.91102,1.59243 c 0.0371,0.0394 0,0.0394 -0.0371,0.0394 h -0.57032 c -0.0371,0 -0.0371,0 -0.074,-0.0394 l -0.60736,-1.13817 -0.3407,0.45675 v 0.68142 c 0,0.0394 0,0.0394 -0.0394,0.0394 h -0.53082 c 0,0 -0.0371,0 -0.0371,-0.0394 z m 3.14786,0 c 0,-0.0371 0.0371,-0.0371 0.0371,-0.0371 h 0.53082 c 0,0 0.0371,0 0.0371,0.0371 v 2.61703 c 0,0.0394 -0.0371,0.0394 -0.0371,0.0394 h -0.53082 c 0,0 -0.0371,0 -0.0371,-0.0394 z m 2.27384,2.65654 c -0.0371,0 -0.0371,0 -0.0371,-0.0394 v -2.12325 c 0,0 0,-0.0371 -0.0371,-0.0371 h -0.68387 c 0,0 -0.0371,0 -0.0371,-0.0396 v -0.41725 c 0,-0.0371 0.0371,-0.0371 0.0371,-0.0371 h 2.00967 c 0.0396,0 0.0396,0 0.0396,0.0371 v 0.41725 c 0,0.0396 0,0.0396 -0.0396,0.0396 h -0.68141 l -0.0394,0.0371 v 2.12325 c 0,0.0394 0,0.0394 -0.0371,0.0394 z m 2.19978,-2.65654 c 0,-0.0371 0,-0.0371 0.0394,-0.0371 h 1.74304 c 0,0 0.0371,0 0.0371,0.0371 v 0.41725 c 0,0.0396 -0.0371,0.0396 -0.0371,0.0396 h -1.17521 c -0.0371,0 -0.0371,0 -0.0371,0.0371 v 0.53079 c 0,0 0,0 0.0371,0 h 0.9851 l 0.0394,0.0371 v 0.45675 l -0.0394,0.0371 h -0.9851 c -0.0371,0 -0.0371,0 -0.0371,0 v 0.57032 c 0,0 0,0.0371 0.0371,0.0371 h 1.17521 c 0,0 0.0371,0 0.0371,0.0371 v 0.41725 c 0,0.0396 -0.0371,0.0396 -0.0371,0.0396 h -1.74304 c -0.0394,0 -0.0394,0 -0.0394,-0.0396 z m 2.80715,0 c 0,-0.0371 0.0371,-0.0371 0.0371,-0.0371 h 0.53084 c 0,0 0.0394,0 0.0394,0.0371 v 1.17766 l 0.8715,-1.17766 c 0.0371,-0.0371 0.0371,-0.0371 0.0765,-0.0371 h 0.56785 c 0.0371,0 0.0371,0 0.0371,0 v 0.0371 l -0.83447,1.0246 0.91101,1.59243 c 0,0.0394 0,0.0394 -0.0371,0.0394 h -0.57032 c -0.0371,0 -0.0371,0 -0.074,-0.0394 l -0.60734,-1.13817 -0.34072,0.45675 v 0.68142 c 0,0.0394 -0.0394,0.0394 -0.0394,0.0394 h -0.53082 c 0,0 -0.0371,0 -0.0371,-0.0394 z m 3.75273,2.65654 c -0.0371,0 -0.0371,0 -0.0371,-0.0394 v -2.12325 l -0.0371,-0.0371 h -0.68388 c -0.0371,0 -0.0371,0 -0.0371,-0.0396 v -0.41725 c 0,-0.0371 0,-0.0371 0.0371,-0.0371 h 2.00966 c 0,0 0.0394,0 0.0394,0.0371 v 0.41725 c 0,0.0396 -0.0394,0.0396 -0.0394,0.0396 h -0.68141 c -0.0394,0 -0.0394,0.0371 -0.0394,0.0371 v 2.12325 c 0,0.0394 0,0.0394 -0.0371,0.0394 z m 3.22438,0.0371 c -0.15069,0 -0.30369,0 -0.41727,-0.0765 -0.15067,-0.0371 -0.26416,-0.11359 -0.3407,-0.19011 -0.11359,-0.074 -0.153,-0.18763 -0.22715,-0.3012 -0.0394,-0.153 -0.0765,-0.30368 -0.0765,-0.45675 v -1.66897 c 0,-0.0371 0,-0.0371 0.0371,-0.0371 h 0.53082 c 0,0 0.0394,0 0.0394,0.0371 v 1.66897 c 0,0.153 0.0371,0.30367 0.11357,0.38021 0.0765,0.0765 0.19011,0.11359 0.34072,0.11359 0.11359,0 0.22713,-0.0371 0.30367,-0.11359 0.0765,-0.0765 0.11359,-0.22714 0.11359,-0.38021 v -1.66897 c 0,-0.0371 0.0371,-0.0371 0.0371,-0.0371 h 0.53079 c 0,0 0.0394,0 0.0394,0.0371 v 1.66897 c 0,0.153 -0.0394,0.30367 -0.0765,0.45675 -0.0765,0.11358 -0.11358,0.22714 -0.22714,0.3012 -0.0765,0.0765 -0.1901,0.153 -0.30367,0.19011 -0.15069,0.0765 -0.26665,0.0765 -0.41725,0.0765 z m 3.60211,-0.0371 c -0.0371,0 -0.074,0 -0.074,-0.0394 l -0.45675,-0.98509 h -0.37775 v 0.98509 c 0,0.0394 -0.0394,0.0394 -0.0394,0.0394 h -0.5308 c 0,0 -0.0371,0 -0.0371,-0.0394 v -2.61703 c 0,-0.0371 0.0371,-0.0371 0.0371,-0.0371 h 1.10113 c 0.11359,0 0.26418,0 0.37774,0.0371 0.11358,0.0396 0.19011,0.11359 0.26664,0.19011 0.074,0.0765 0.15068,0.153 0.19011,0.26664 0.0371,0.11359 0.074,0.22714 0.074,0.34071 0,0.15067 -0.0371,0.30366 -0.11359,0.45428 -0.11359,0.11359 -0.22714,0.22712 -0.37775,0.30366 l 0.5308,1.06163 c 0,0 0,0 0,0.0394 z m -0.41724,-1.51837 c 0.11359,0 0.19009,-0.0371 0.26663,-0.11359 0.0765,-0.0371 0.11359,-0.15067 0.11359,-0.22714 0,-0.11358 -0.0371,-0.1901 -0.11359,-0.26664 -0.0765,-0.0371 -0.15298,-0.074 -0.26663,-0.074 h -0.49132 c 0,0 0,0 0,0.0371 v 0.64439 z m 4.4761,1.5554 c -0.26663,0 -0.45674,-0.0371 -0.64437,-0.15068 -0.153,-0.11609 -0.30368,-0.26664 -0.34318,-0.49378 -0.0371,-0.0396 -0.0371,-0.11359 -0.0371,-0.153 -0.0371,-0.0371 -0.0371,-0.074 -0.0371,-0.15068 0,-0.0371 0,-0.11358 0,-0.1901 0,-0.0765 0,-0.15068 0,-0.26416 0,-0.0765 0,-0.19012 0,-0.26664 0,-0.0371 0,-0.11359 0,-0.19011 0,-0.0371 0,-0.074 0.0371,-0.15067 0,-0.0371 0,-0.0765 0.0371,-0.11359 0.0394,-0.22714 0.19012,-0.38021 0.34318,-0.49379 0.18763,-0.11358 0.37774,-0.1901 0.64437,-0.1901 0.22714,0 0.41725,0.0765 0.60735,0.1901 0.18762,0.11359 0.30119,0.26665 0.37774,0.49379 0,0.0371 0,0.0765 0.0371,0.11359 0,0.0765 0,0.11358 0,0.15067 0,0.0765 0,0.153 0.0394,0.19011 0,0.0765 0,0.19009 0,0.26664 0,0.11359 0,0.18762 0,0.26416 -0.0394,0.0765 -0.0394,0.153 -0.0394,0.1901 0,0.0765 0,0.11359 0,0.15068 -0.0371,0.0396 -0.0371,0.11359 -0.0371,0.153 -0.0765,0.22714 -0.19012,0.37774 -0.37774,0.49378 -0.1901,0.11359 -0.38021,0.15068 -0.60735,0.15068 z m 0,-0.53082 c 0.11358,0 0.1901,0 0.26417,-0.0765 0.0765,-0.0371 0.11357,-0.11359 0.153,-0.19011 0,-0.0371 0,-0.074 0,-0.11358 0,0 0.0371,-0.0371 0.0371,-0.074 0,-0.0765 0,-0.11359 0,-0.19011 0,-0.0396 0,-0.11358 0,-0.22712 0,-0.0765 0,-0.153 0,-0.22963 0,-0.0371 0,-0.11358 0,-0.15067 0,-0.0371 -0.0371,-0.0765 -0.0371,-0.11359 0,-0.0371 0,-0.0371 0,-0.0765 -0.0394,-0.074 -0.0765,-0.15067 -0.153,-0.22714 -0.074,-0.0371 -0.15067,-0.0765 -0.26417,-0.0765 -0.11358,0 -0.22714,0.0396 -0.30368,0.0765 -0.0765,0.0765 -0.11359,0.153 -0.153,0.22714 0,0.0394 0,0.0394 0,0.0765 0,0.0371 0,0.0765 -0.0371,0.11359 0,0.0371 0,0.11359 0,0.15067 0,0.0765 0,0.15301 0,0.22963 0,0.11359 0,0.18762 0,0.22712 0,0.0765 0,0.11359 0,0.19011 0.0371,0.0371 0.0371,0.074 0.0371,0.074 0,0.0394 0,0.0765 0,0.11358 0.0394,0.0765 0.0765,0.15301 0.153,0.19011 0.0765,0.0765 0.19011,0.0765 0.30368,0.0765 z m 2.08624,-0.11359 c -0.0394,-0.0396 -0.0394,-0.11359 -0.0394,-0.153 -0.0371,-0.0371 -0.0371,-0.074 -0.0371,-0.15067 0,-0.0371 0,-0.11359 0,-0.19011 0,-0.0765 0,-0.15068 0,-0.26416 0,-0.0765 0,-0.19012 0,-0.26664 0,-0.0371 0,-0.11358 0,-0.19011 0,-0.0371 0,-0.074 0.0371,-0.15067 0,-0.0371 0,-0.0765 0.0394,-0.11359 0.0371,-0.22714 0.18764,-0.38021 0.34069,-0.49378 0.1901,-0.11359 0.37775,-0.19011 0.64438,-0.19011 0.11358,0 0.22714,0.0396 0.3407,0.0765 0.11359,0 0.19011,0.0371 0.26665,0.11359 0.074,0.0371 0.15067,0.11359 0.22714,0.19011 0.0371,0.0371 0.0765,0.15067 0.1136,0.22714 0.0371,0 0,0.0371 0,0.0371 l -0.41726,0.19011 c -0.0371,0 -0.0765,0 -0.0765,-0.0371 -0.0371,-0.0765 -0.11359,-0.153 -0.19011,-0.1901 -0.074,-0.0371 -0.15067,-0.0765 -0.26416,-0.0765 -0.11359,0 -0.22715,0.0396 -0.30369,0.0765 -0.0765,0.0765 -0.11359,0.153 -0.15067,0.22714 0,0.0394 0,0.0394 0,0.0765 0,0.0371 0,0.0765 -0.0394,0.11359 0,0.0371 0,0.11358 0,0.15067 0,0.0765 0,0.153 0,0.22963 0,0.11359 0,0.18762 0,0.22712 0,0.0765 0,0.11359 0,0.19011 0.0394,0.0371 0.0394,0.074 0.0394,0.074 0,0.0394 0,0.0765 0,0.11359 0.0371,0.0765 0.074,0.153 0.15067,0.19011 0.0765,0.0765 0.19011,0.0765 0.30369,0.0765 0.11358,0 0.19011,0 0.26416,-0.0371 0.0765,-0.0765 0.153,-0.1161 0.153,-0.22961 0.0371,-0.0371 0.0371,-0.074 0.0371,-0.11359 0,-0.0371 0,-0.074 0,-0.15067 v -0.0371 h -0.37774 c -0.0394,0 -0.0394,0 -0.0394,-0.0396 v -0.37774 c 0,0 0,-0.0396 0.0394,-0.0396 h 0.94806 l 0.0371,0.0396 V 252.13 c 0,0.11358 -0.0371,0.22713 -0.0371,0.34071 0,0.11358 -0.0394,0.1901 -0.0394,0.26417 -0.074,0.22961 -0.1901,0.38021 -0.37773,0.53327 -0.15301,0.11358 -0.38022,0.15067 -0.60736,0.15067 -0.26665,0 -0.45428,-0.0371 -0.64438,-0.15067 -0.153,-0.1161 -0.30368,-0.26663 -0.34072,-0.49377 z m 4.55016,-2.04918 c 0,-0.0371 0.0371,-0.0371 0.0371,-0.0371 h 0.49378 c 0.0371,0 0.0371,0 0.0371,0.0371 l 0.68388,1.51837 h 0.0371 l 0.6814,-1.51837 c 0,-0.0371 0,-0.0371 0.0394,-0.0371 h 0.49379 c 0,0 0.0371,0 0.0371,0.0371 v 2.61703 c 0,0.0394 -0.0371,0.0394 -0.0371,0.0394 h -0.45673 c -0.0371,0 -0.0371,0 -0.0371,-0.0394 v -1.51591 h -0.0394 l -0.49131,1.13817 c 0,0.0371 -0.0394,0.0371 -0.0765,0.0371 h -0.26417 c -0.0394,0 -0.0765,0 -0.0765,-0.0371 l -0.49376,-1.13817 h -0.0371 v 1.51591 c 0,0.0394 0,0.0394 -0.0394,0.0394 h -0.45428 c 0,0 -0.0371,0 -0.0371,-0.0394 z m 3.60212,0 c 0,-0.0371 0.0371,-0.0371 0.0371,-0.0371 h 1.74552 c 0.0371,0 0.0371,0 0.0371,0.0371 v 0.41725 c 0,0.0396 0,0.0396 -0.0371,0.0396 h -1.1752 c 0,0 0,0 0,0.0371 v 0.53079 h 0.98511 c 0.0371,0 0.0371,0.0371 0.0371,0.0371 v 0.45676 c 0,0 0,0.0371 -0.0371,0.0371 h -0.98511 v 0.60735 h 1.1752 c 0.0371,0 0.0371,0 0.0371,0.0371 v 0.41725 c 0,0.0394 0,0.0394 -0.0371,0.0394 h -1.74552 c 0,0 -0.0371,0 -0.0371,-0.0394 z m 2.84418,0 c 0,-0.0371 0,-0.0371 0.0371,-0.0371 h 0.98757 c 0.26418,0 0.45424,0.0371 0.60487,0.15067 0.153,0.0765 0.26664,0.22961 0.34317,0.45675 0,0.0371 0.0371,0.0765 0.0371,0.11359 0,0.0371 0,0.0765 0,0.15067 0.0371,0.0396 0.0371,0.11359 0.0371,0.19011 0,0.0765 0,0.153 0,0.26664 0,0.11359 0,0.22712 0,0.30366 0,0.074 0,0.15068 -0.0371,0.18764 0,0.0394 0,0.11358 0,0.153 0,0.0371 -0.0371,0.074 -0.0371,0.11359 -0.0765,0.1901 -0.19011,0.34071 -0.34317,0.45428 -0.15069,0.11358 -0.34069,0.153 -0.60487,0.153 h -0.98757 c -0.0371,0 -0.0371,0 -0.0371,-0.0394 z m 0.56784,2.12572 c 0,0 0,0 0.0394,0 h 0.30366 c 0.1136,0 0.22714,0 0.30119,-0.0396 0.11609,-0.0765 0.153,-0.15068 0.19013,-0.26418 0,0 0,-0.0394 0.0394,-0.0394 0,-0.0371 0,-0.074 0,-0.11359 0,-0.0371 0,-0.074 0,-0.15067 0,-0.0396 0,-0.11359 0,-0.22712 0,-0.0765 0,-0.15301 0,-0.22963 0,-0.0371 0,-0.074 0,-0.11359 0,-0.0371 0,-0.074 0,-0.11359 -0.0394,-0.0371 -0.0394,-0.0371 -0.0394,-0.074 -0.0371,-0.11359 -0.074,-0.19009 -0.19013,-0.2296 -0.074,-0.0371 -0.18762,-0.074 -0.30119,-0.074 h -0.30366 c -0.0394,0 -0.0394,0 -0.0394,0.0371 z m 2.50346,-2.12572 c 0,-0.0371 0,-0.0371 0.0371,-0.0371 h 0.49377 c 0.0394,0 0.0394,0 0.0394,0.0371 v 2.61703 c 0,0.0394 0,0.0394 -0.0394,0.0394 h -0.49377 c -0.0371,0 -0.0371,0 -0.0371,-0.0394 z m 1.66898,0 c 0,-0.0371 0,-0.0371 0.0371,-0.0371 h 1.74553 c 0,0 0.0371,0 0.0371,0.0371 v 0.41725 c 0,0.0396 -0.0371,0.0396 -0.0371,0.0396 h -1.17521 c 0,0 -0.0394,0 -0.0394,0.0371 v 0.53079 h 1.0246 l 0.0371,0.0371 v 0.45676 l -0.0371,0.0371 h -1.0246 v 0.57032 l 0.0394,0.0371 h 1.17521 c 0,0 0.0371,0 0.0371,0.0371 v 0.41725 c 0,0.0396 -0.0371,0.0396 -0.0371,0.0396 h -1.74553 c -0.0371,0 -0.0371,0 -0.0371,-0.0396 z m 3.41202,2.65654 c -0.0371,0 -0.0371,0 -0.0371,-0.0394 v -2.12325 c 0,0 0,-0.0371 -0.0371,-0.0371 h -0.68388 c 0,0 -0.0371,0 -0.0371,-0.0396 v -0.41724 c 0,-0.0371 0.0371,-0.0371 0.0371,-0.0371 h 2.00966 c 0.0394,0 0.0394,0 0.0394,0.0371 v 0.41724 c 0,0.0396 0,0.0396 -0.0394,0.0396 h -0.68141 l -0.0394,0.0371 v 2.12325 c 0,0.0394 0,0.0394 -0.0371,0.0394 z m 2.19979,-2.65654 c 0,-0.0371 0,-0.0371 0.0394,-0.0371 h 1.74303 c 0,0 0.0394,0 0.0394,0.0371 v 0.41725 c 0,0.0396 -0.0394,0.0396 -0.0394,0.0396 h -1.17518 c -0.0371,0 -0.0371,0 -0.0371,0.0371 v 0.53079 c 0,0 0,0 0.0371,0 h 0.9851 l 0.0394,0.0371 v 0.45676 l -0.0394,0.0371 h -0.9851 c -0.0371,0 -0.0371,0 -0.0371,0 v 0.57032 c 0,0 0,0.0371 0.0371,0.0371 h 1.17518 c 0,0 0.0394,0 0.0394,0.0371 v 0.41725 c 0,0.0396 -0.0394,0.0396 -0.0394,0.0396 h -1.74303 c -0.0394,0 -0.0394,0 -0.0394,-0.0396 z m 2.80712,0 c 0,-0.0371 0.0371,-0.0371 0.0371,-0.0371 h 0.5308 c 0,0 0.0394,0 0.0394,0.0371 v 1.17766 l 0.87152,-1.17766 c 0.0371,-0.0371 0.0371,-0.0371 0.0765,-0.0371 h 0.56785 c 0.0371,0 0.0371,0 0.0371,0 v 0.0371 l -0.83449,1.0246 0.91103,1.59243 c 0,0.0394 0,0.0394 -0.0371,0.0394 h -0.5703 c -0.0371,0 -0.074,0 -0.074,-0.0394 l -0.60735,-1.13817 -0.34071,0.45675 v 0.68142 c 0,0.0394 -0.0394,0.0394 -0.0394,0.0394 h -0.53081 c 0,0 -0.0371,0 -0.0371,-0.0394 z m 3.14785,0 c 0,-0.0371 0,-0.0371 0.0371,-0.0371 h 0.49377 c 0,0 0.0371,0 0.0371,0.0371 l 0.98757,1.70847 v -1.70847 c 0,-0.0371 0,-0.0371 0.0371,-0.0371 h 0.45426 c 0.0394,0 0.0394,0 0.0394,0.0371 v 2.61703 c 0,0.0394 0,0.0394 -0.0394,0.0394 h -0.45426 c -0.0371,0 -0.0765,0 -0.0765,-0.0394 l -0.98511,-1.70601 v 1.70601 c 0,0.0394 0,0.0394 -0.0394,0.0394 h -0.45427 c -0.0371,0 -0.0371,0 -0.0371,-0.0394 z m 4.16998,2.69357 c -0.22714,0 -0.45429,-0.0371 -0.60488,-0.15067 -0.19011,-0.1161 -0.30368,-0.26665 -0.38023,-0.49379 -0.0371,-0.0396 -0.0371,-0.11359 -0.0371,-0.153 0,-0.0371 -0.0394,-0.074 -0.0394,-0.15067 0,-0.0371 0,-0.11359 0,-0.19011 0,-0.0765 0,-0.15067 0,-0.26415 0,-0.0765 0,-0.19013 0,-0.26665 0,-0.0371 0,-0.11359 0,-0.19011 0,-0.0371 0.0394,-0.074 0.0394,-0.15067 0,-0.0371 0,-0.0765 0.0371,-0.11359 0.0765,-0.22714 0.19012,-0.38021 0.38023,-0.49378 0.15067,-0.11359 0.37774,-0.19011 0.60488,-0.19011 0.22959,0 0.45674,0.0765 0.60733,0.19011 0.19011,0.11359 0.30367,0.26664 0.38021,0.49378 0,0.0371 0.0371,0.0765 0.0371,0.11359 0,0.0765 0,0.11359 0,0.15067 0.0371,0.0765 0.0371,0.153 0.0371,0.19011 0,0.0765 0,0.19009 0,0.26665 0,0.11358 0,0.18761 0,0.26415 0,0.0765 0,0.153 -0.0371,0.19011 0,0.0765 0,0.11358 0,0.15067 0,0.0396 -0.0371,0.11359 -0.0371,0.153 -0.0765,0.22714 -0.1901,0.37774 -0.38021,0.49379 -0.15067,0.11358 -0.37774,0.15067 -0.60733,0.15067 z m 0,-0.53082 c 0.11359,0 0.19009,0 0.26663,-0.0765 0.0765,-0.0371 0.11358,-0.11359 0.15068,-0.19011 0,-0.0371 0,-0.074 0.0394,-0.11358 0,0 0,-0.0371 0,-0.074 0,-0.0765 0,-0.11358 0,-0.1901 0,-0.0396 0,-0.11359 0,-0.22713 0,-0.0765 0,-0.153 0,-0.22962 0,-0.0371 0,-0.11359 0,-0.15068 0,-0.0371 0,-0.0765 0,-0.11359 -0.0394,-0.0371 -0.0394,-0.0371 -0.0394,-0.0765 -0.0371,-0.074 -0.074,-0.15067 -0.15068,-0.22714 -0.0765,-0.0371 -0.15301,-0.0765 -0.26663,-0.0765 -0.1136,0 -0.22714,0.0396 -0.26419,0.0765 -0.0765,0.0765 -0.153,0.15301 -0.153,0.22714 -0.0371,0.0394 -0.0371,0.0394 -0.0371,0.0765 0,0.0371 0,0.0765 0,0.11359 0,0.0371 0,0.11359 0,0.15068 -0.0371,0.0765 -0.0371,0.153 -0.0371,0.22962 0,0.11359 0,0.18762 0.0371,0.22713 0,0.0765 0,0.11359 0,0.1901 0,0.0371 0,0.074 0,0.074 0,0.0394 0,0.0765 0.0371,0.11358 0,0.0765 0.0765,0.15301 0.153,0.19011 0.0371,0.0765 0.15067,0.0765 0.26419,0.0765 z m 2.08621,-2.16275 c 0,-0.0371 0,-0.0371 0.0394,-0.0371 h 0.49131 c 0.0394,0 0.0394,0 0.0394,0.0371 v 2.12572 c 0,0 0,0 0.0371,0 h 1.17522 c 0.0371,0 0.0371,0.0371 0.0371,0.0371 v 0.45428 c 0,0.0394 0,0.0394 -0.0371,0.0394 h -1.74306 c -0.0394,0 -0.0394,0 -0.0394,-0.0394 z m 3.6416,2.69357 c -0.22711,0 -0.45673,-0.0371 -0.60732,-0.15067 -0.19011,-0.1161 -0.30367,-0.26665 -0.38021,-0.49379 0,-0.0396 -0.0371,-0.11359 -0.0371,-0.153 0,-0.0371 0,-0.074 -0.0371,-0.15067 0,-0.0371 0,-0.11359 0,-0.19011 0,-0.0765 0,-0.15067 0,-0.26415 0,-0.0765 0,-0.19013 0,-0.26665 0,-0.0371 0,-0.11359 0,-0.19011 0.0371,-0.0371 0.0371,-0.074 0.0371,-0.15067 0,-0.0371 0.0371,-0.0765 0.0371,-0.11359 0.0765,-0.22714 0.1901,-0.38021 0.38021,-0.49378 0.15067,-0.11359 0.38021,-0.19011 0.60734,-0.19011 0.22715,0 0.45428,0.0765 0.6049,0.19011 0.1901,0.11359 0.30367,0.26664 0.38021,0.49378 0.0371,0.0371 0.0371,0.0765 0.0371,0.11359 0,0.0765 0.0394,0.11359 0.0394,0.15067 0,0.0765 0,0.153 0,0.19011 0,0.0765 0,0.19009 0,0.26665 0,0.11358 0,0.18761 0,0.26415 0,0.0765 0,0.153 0,0.19011 0,0.0765 -0.0394,0.11358 -0.0394,0.15067 0,0.0396 0,0.11359 -0.0371,0.153 -0.0765,0.22714 -0.19011,0.37774 -0.38021,0.49379 -0.15068,0.11358 -0.37775,0.15067 -0.6049,0.15067 z m 0,-0.53082 c 0.11359,0 0.19012,0 0.26419,-0.0765 0.0765,-0.0371 0.153,-0.11359 0.153,-0.19011 0.0371,-0.0371 0.0371,-0.074 0.0371,-0.11358 0,0 0,-0.0371 0,-0.074 0,-0.0765 0,-0.11358 0,-0.1901 0,-0.0396 0,-0.11359 0,-0.22713 0,-0.0765 0,-0.153 0,-0.22962 0,-0.0371 0,-0.11359 0,-0.15068 0,-0.0371 0,-0.0765 0,-0.11359 0,-0.0371 0,-0.0371 -0.0371,-0.0765 0,-0.074 -0.0765,-0.15067 -0.153,-0.22714 -0.074,-0.0371 -0.15069,-0.0765 -0.26419,-0.0765 -0.11358,0 -0.19008,0.0396 -0.26662,0.0765 -0.0765,0.0765 -0.11357,0.15301 -0.15068,0.22714 0,0.0394 -0.0394,0.0394 -0.0394,0.0765 0,0.0371 0,0.0765 0,0.11359 0,0.0371 0,0.11359 0,0.15068 0,0.0765 0,0.153 0,0.22962 0,0.11359 0,0.18762 0,0.22713 0,0.0765 0,0.11359 0,0.1901 0,0.0371 0,0.074 0,0.074 0,0.0394 0.0394,0.0765 0.0394,0.11358 0.0371,0.0765 0.074,0.15301 0.15068,0.19011 0.0765,0.0765 0.153,0.0765 0.26662,0.0765 z m 2.08624,-0.11358 c 0,-0.0396 -0.0394,-0.11359 -0.0394,-0.15301 0,-0.0371 -0.0371,-0.074 -0.0371,-0.15067 0,-0.0371 0,-0.11359 0,-0.19011 0,-0.0765 0,-0.15067 0,-0.26415 0,-0.0765 0,-0.19013 0,-0.26665 0,-0.0371 0,-0.11358 0,-0.1901 0,-0.0371 0.0371,-0.074 0.0371,-0.15068 0,-0.0371 0.0394,-0.0765 0.0394,-0.11358 0.074,-0.22714 0.18764,-0.38022 0.37774,-0.49379 0.153,-0.11359 0.38021,-0.19011 0.60734,-0.19011 0.15067,0 0.26418,0.0396 0.3407,0.0765 0.11359,0 0.19012,0.0371 0.30369,0.11358 0.0765,0.0371 0.15067,0.11359 0.1901,0.19011 0.0765,0.0371 0.1136,0.15067 0.15068,0.22714 0,0 0,0.0371 -0.0371,0.0371 l -0.41726,0.19011 c -0.0371,0 -0.0371,0 -0.0765,-0.0371 -0.0371,-0.0765 -0.11358,-0.15301 -0.1901,-0.19011 -0.0371,-0.0371 -0.15067,-0.0765 -0.26417,-0.0765 -0.1136,0 -0.19009,0.0396 -0.26665,0.0765 -0.074,0.0765 -0.15067,0.153 -0.15067,0.22714 0,0.0394 -0.0371,0.0394 -0.0371,0.0765 0,0.0371 0,0.0765 0,0.11359 0,0.0371 0,0.11359 0,0.15067 0,0.0765 0,0.15301 0,0.22963 0,0.11359 0,0.18762 0,0.22712 0,0.0765 0,0.11359 0,0.19011 0,0.0371 0,0.074 0,0.074 0,0.0394 0.0371,0.0765 0.0371,0.11359 0,0.0765 0.0765,0.153 0.15067,0.19011 0.0765,0.0765 0.153,0.0765 0.26665,0.0765 0.11358,0 0.1901,0 0.30367,-0.0371 0.074,-0.0765 0.11359,-0.11609 0.15067,-0.22961 0,-0.0371 0,-0.074 0,-0.11359 0.0394,-0.0371 0.0394,-0.074 0.0394,-0.15067 l -0.0394,-0.0371 h -0.37774 c 0,0 -0.0394,0 -0.0394,-0.0396 v -0.37774 l 0.0394,-0.0396 h 0.94807 c 0.0371,0 0.0371,0.0396 0.0371,0.0396 v 0.22714 c 0,0.11358 0,0.22714 0,0.34071 -0.0371,0.11358 -0.0371,0.1901 -0.0765,0.26417 -0.074,0.22961 -0.19011,0.38021 -0.3407,0.53327 -0.19011,0.11359 -0.38022,0.15067 -0.64439,0.15067 -0.22715,0 -0.45426,-0.0371 -0.60733,-0.15067 -0.19011,-0.1161 -0.30368,-0.26663 -0.37775,-0.49377 z m 3.07132,-2.04919 c 0,-0.0371 0,-0.0371 0.0371,-0.0371 h 0.49376 c 0.0371,0 0.0371,0 0.0371,0.0371 v 2.61703 c 0,0.0394 0,0.0394 -0.0371,0.0394 h -0.49376 c -0.0371,0 -0.0371,0 -0.0371,-0.0394"
         id="path492" />
      <path
         inkscape:connector-curvature="0"
         style="fill:#000000;fill-opacity:1;fill-rule:nonzero;stroke:none;stroke-width:1.0273515"
         d="m -359.46008,242.4918 c 0,-0.0603 0.0641,-0.0603 0.0641,-0.0603 h 0.86282 c 0,0 0.0603,0 0.0603,0.0603 v 1.66545 h 1.48085 v -1.66545 c 0,-0.0603 0.0603,-0.0603 0.0603,-0.0603 h 0.86282 c 0,0 0.0603,0 0.0603,0.0603 v 4.25388 c 0,0.0641 -0.0603,0.0641 -0.0603,0.0641 h -0.86282 c 0,0 -0.0603,0 -0.0603,-0.0641 v -1.72564 h -1.48085 v 1.72564 c 0,0.0641 -0.0603,0.0641 -0.0603,0.0641 h -0.86282 c 0,0 -0.0641,0 -0.0641,-0.0641 z m 6.90253,4.37829 c -0.24491,0 -0.48962,0 -0.67419,-0.12435 -0.2487,-0.0603 -0.43342,-0.18464 -0.55783,-0.30902 -0.18463,-0.12027 -0.24492,-0.30499 -0.36921,-0.48959 -0.0603,-0.2487 -0.12435,-0.49361 -0.12435,-0.74243 v -2.71284 c 0,-0.0603 0,-0.0603 0.0644,-0.0603 h 0.86282 c 0,0 0.0603,0 0.0603,0.0603 v 2.71284 c 0,0.2487 0.0641,0.49361 0.18464,0.61802 0.12435,0.12435 0.30898,0.18463 0.5538,0.18463 0.18871,0 0.3732,-0.0603 0.49359,-0.18463 0.12435,-0.12435 0.18463,-0.3692 0.18463,-0.61802 v -2.71284 c 0,-0.0603 0.0641,-0.0603 0.0641,-0.0603 h 0.86282 c 0,0 0.0603,0 0.0603,0.0603 v 2.71284 c 0,0.2487 -0.0603,0.49361 -0.12435,0.74243 -0.12056,0.18463 -0.18463,0.36921 -0.3692,0.48959 -0.12028,0.12435 -0.305,0.2487 -0.49362,0.30902 -0.24491,0.12435 -0.4294,0.12435 -0.67822,0.12435 z m 3.39106,-4.37829 c 0,-0.0603 0.0641,-0.0603 0.0641,-0.0603 h 0.7986 c 0.0641,0 0.0641,0 0.0641,0.0603 l 1.10762,2.46804 h 0.0641 l 1.10762,-2.46804 c 0,-0.0603 0,-0.0603 0.0603,-0.0603 h 0.80262 c 0,0 0.0603,0 0.0603,0.0603 v 4.25388 c 0,0.0641 -0.0603,0.0641 -0.0603,0.0641 h -0.73841 c -0.0644,0 -0.0644,0 -0.0644,-0.0641 v -2.46405 h -0.0603 l -0.80263,1.85004 c 0,0.0603 -0.0603,0.0603 -0.12027,0.0603 h -0.43342 c -0.0603,0 -0.12435,0 -0.12435,-0.0603 l -0.7986,-1.85004 h -0.0641 v 2.46405 c 0,0.0641 0,0.0641 -0.0603,0.0641 h -0.73842 c 0,0 -0.0641,0 -0.0641,-0.0641 z m 7.09112,0 c 0,-0.0603 0,-0.0603 0.0603,-0.0603 h 0.80262 c 0.0603,0 0.0603,0 0.0603,0.0603 l 1.54104,4.25388 c 0,0.0641 0,0.0641 -0.0603,0.0641 h -0.86282 c 0,0 -0.0644,0 -0.0644,-0.0641 l -0.24491,-0.79861 h -1.54101 l -0.2487,0.79861 c 0,0.0641 -0.0603,0.0641 -0.12027,0.0641 h -0.80263 c -0.0603,0 -0.0603,0 -0.0603,-0.0641 z m 0.98321,2.65265 -0.48959,-1.54101 h -0.0641 l -0.49361,1.54101 z m 2.89744,-2.65265 c 0,-0.0603 0,-0.0603 0.0644,-0.0603 h 0.79861 c 0,0 0.0644,0 0.0644,0.0603 l 1.60123,2.77705 v -2.77705 c 0,-0.0603 0,-0.0603 0.0603,-0.0603 h 0.7424 c 0.0603,0 0.0603,0 0.0603,0.0603 v 4.25388 c 0,0.0641 0,0.0641 -0.0603,0.0641 h -0.7424 c -0.0603,0 -0.12027,0 -0.12027,-0.0641 l -1.60525,-2.77306 v 2.77306 c 0,0.0641 0,0.0641 -0.0603,0.0641 h -0.73841 c -0.0644,0 -0.0644,0 -0.0644,-0.0641 z m 5.0565,3.02185 -0.0603,-0.0603 v -0.67822 c 0,-0.0641 0.0603,-0.0641 0.0603,-0.0641 h 1.91025 c 0,0 0.0603,0 0.0603,0.0641 v 0.67822 l -0.0603,0.0603 z m 3.57566,-3.02185 c 0,-0.0603 0,-0.0603 0.0603,-0.0603 h 0.73841 c 0.0641,0 0.12435,0 0.12435,0.0603 l 1.11164,2.46804 h 0.0603 l 1.04742,-2.46804 c 0.0603,-0.0603 0.0603,-0.0603 0.12435,-0.0603 h 0.73841 c 0.0644,0 0.0644,0 0.0644,0.0603 v 4.25388 c 0,0.0641 0,0.0641 -0.0644,0.0641 h -0.73841 c 0,0 -0.0644,0 -0.0644,-0.0641 v -2.46405 l -0.79861,1.85004 c -0.0643,0.0603 -0.0643,0.0603 -0.12434,0.0603 h -0.49362 c 0,0 -0.0603,0 -0.12435,-0.0603 l -0.79861,-1.85004 v 2.46405 c 0,0.0641 -0.0641,0.0641 -0.0641,0.0641 h -0.73841 c -0.0603,0 -0.0603,0 -0.0603,-0.0641 z m 7.02694,0 c 0,-0.0603 0.0603,-0.0603 0.12435,-0.0603 h 0.79861 c 0,0 0.0644,0 0.0644,0.0603 l 1.47682,4.25388 c 0,0.0641 0,0.0641 0,0.0641 h -0.86282 c -0.0603,0 -0.0603,0 -0.0603,-0.0641 l -0.30901,-0.79861 h -1.54104 l -0.24491,0.79861 c 0,0.0641 0,0.0641 -0.0644,0.0641 h -0.86282 c 0,0 -0.0603,0 0,-0.0641 z m 0.98723,2.65265 -0.49361,-1.54101 -0.49362,1.54101 z m 2.77304,0.67821 c -0.0644,-0.12435 -0.0644,-0.18463 -0.0644,-0.2487 -0.0603,-0.0603 -0.0603,-0.12027 -0.0603,-0.24491 0,-0.0603 0,-0.18463 0,-0.30901 0,-0.12435 0,-0.24492 0,-0.42937 0,-0.12435 0,-0.30904 0,-0.43342 0,-0.12435 0,-0.18463 0,-0.30901 0,-0.0603 0,-0.12028 0.0603,-0.24492 0,-0.0603 0,-0.12435 0.0644,-0.18463 0.12027,-0.36921 0.30901,-0.61802 0.55381,-0.80263 0.24491,-0.18463 0.61802,-0.30901 0.98722,-0.30901 0.36921,0 0.67819,0.12435 0.9872,0.30901 0.24492,0.12435 0.4294,0.36921 0.55381,0.67822 0,0.0603 0,0.0603 -0.0644,0.12435 l -0.67821,0.30898 c -0.0603,0 -0.0603,0 -0.0603,-0.0641 -0.0603,-0.12027 -0.18463,-0.24491 -0.30898,-0.3692 -0.0603,-0.0603 -0.24491,-0.12435 -0.4294,-0.12435 -0.18463,0 -0.30901,0.0644 -0.43342,0.12435 -0.0603,0.12435 -0.18463,0.2487 -0.24491,0.3692 0,0.0641 0,0.0641 0,0.12436 0,0.0603 0,0.12434 0,0.18463 -0.0644,0.0603 -0.0644,0.12435 -0.0644,0.24491 0,0.12435 0,0.2487 0,0.37326 0,0.18463 0,0.30496 0,0.42937 0,0.0643 0,0.18463 0.0644,0.2487 0,0.0603 0,0.12027 0,0.18463 0,0 0,0.0603 0,0.12027 0.0603,0.12435 0.18463,0.2487 0.24491,0.30901 0.12435,0.12435 0.2487,0.12435 0.43342,0.12435 0.18463,0 0.36918,0 0.4294,-0.12435 0.12435,-0.0603 0.2487,-0.18463 0.30898,-0.3692 0,0 0,0 0.0603,0 l 0.67821,0.30901 c 0.0644,0 0.0644,0.0603 0.0644,0.0603 -0.12435,0.30901 -0.30898,0.55381 -0.55381,0.74243 -0.30901,0.18463 -0.61799,0.24491 -0.9872,0.24491 -0.3692,0 -0.74243,-0.0603 -0.98722,-0.24491 -0.24492,-0.18871 -0.43343,-0.49361 -0.55381,-0.80263 z m 4.62308,-3.33086 c 0,-0.0603 0,-0.0603 0.0603,-0.0603 h 0.80262 c 0.0603,0 0.0603,0 0.0603,0.0603 v 1.66545 h 1.48084 c 0.0603,0 0.0603,0 0.0603,0 v -1.66545 c 0,-0.0603 0,-0.0603 0.0641,-0.0603 h 0.7986 c 0.0644,0 0.0644,0 0.0644,0.0603 v 4.25388 c 0,0.0641 0,0.0641 -0.0644,0.0641 h -0.7986 c -0.0641,0 -0.0641,0 -0.0641,-0.0641 v -1.72564 c 0,0 0,0 -0.0603,0 h -1.48084 v 1.72564 c 0,0.0641 0,0.0641 -0.0603,0.0641 h -0.80262 c -0.0603,0 -0.0603,0 -0.0603,-0.0641 z m 5.17688,0 c 0,-0.0603 0,-0.0603 0.0603,-0.0603 h 0.80262 c 0.0603,0 0.12436,0 0.12436,0.0603 v 4.25388 c 0,0.0641 -0.0644,0.0641 -0.12436,0.0641 h -0.80262 c -0.0603,0 -0.0603,0 -0.0603,-0.0641 z m 2.71285,0 c 0,-0.0603 0.0603,-0.0603 0.0603,-0.0603 h 0.80262 c 0.0603,0 0.0603,0 0.12435,0.0603 l 1.54104,2.77705 v -2.77705 c 0,-0.0603 0.0603,-0.0603 0.0603,-0.0603 h 0.73837 c 0.0641,0 0.0641,0 0.0641,0.0603 v 4.25388 c 0,0.0641 0,0.0641 -0.0641,0.0641 h -0.73837 c -0.0603,0 -0.12435,0 -0.12435,-0.0641 l -1.54104,-2.77306 h -0.0603 v 2.77306 c 0,0.0641 0,0.0641 -0.0603,0.0641 h -0.74243 c 0,0 -0.0603,0 -0.0603,-0.0641 z m 5.17689,0 c 0,-0.0603 0,-0.0603 0.0603,-0.0603 h 2.83726 c 0,0 0.0603,0 0.0603,0.0603 v 0.67822 c 0,0.0644 -0.0603,0.0644 -0.0603,0.0644 h -1.91021 c 0,0 -0.0641,0 -0.0641,0.0603 v 0.86279 h 1.66541 l 0.0644,0.0603 v 0.74243 l -0.0644,0.0603 h -1.66541 v 0.92703 l 0.0641,0.0603 h 1.91021 c 0,0 0.0603,0 0.0603,0.0603 v 0.67822 c 0,0.0644 -0.0603,0.0644 -0.0603,0.0644 h -2.83726 c -0.0603,0 -0.0603,0 -0.0603,-0.0644 z m 7.02694,0 c 0,-0.0603 0,-0.0603 0.0603,-0.0603 h 0.80263 c 0.0644,0 0.12434,0 0.12434,0.0603 v 4.25388 c 0,0.0641 -0.0603,0.0641 -0.12434,0.0641 h -0.80263 c -0.0603,0 -0.0603,0 -0.0603,-0.0641 z m 2.71283,0 c 0,-0.0603 0.0603,-0.0603 0.0603,-0.0603 h 0.80261 c 0.0603,0 0.0603,0 0.12436,0.0603 l 1.541,2.77705 v -2.77705 c 0,-0.0603 0.0603,-0.0603 0.0603,-0.0603 h 0.73841 c 0.0641,0 0.0641,0 0.0641,0.0603 v 4.25388 c 0,0.0641 0,0.0641 -0.0641,0.0641 h -0.73841 c -0.0603,0 -0.12436,0 -0.12436,-0.0641 l -1.541,-2.77306 h -0.0603 v 2.77306 c 0,0.0641 0,0.0641 -0.0603,0.0641 h -0.74242 c 0,0 -0.0603,0 -0.0603,-0.0641 z m 6.16413,4.31809 c -0.0603,0 -0.0603,0 -0.0603,-0.0641 v -3.45125 l -0.0641,-0.0603 h -1.10761 c -0.0644,0 -0.0644,0 -0.0644,-0.0644 v -0.67822 c 0,-0.0603 0,-0.0603 0.0644,-0.0603 h 3.26665 c 0,0 0.0603,0 0.0603,0.0603 v 0.67822 c 0,0.0644 -0.0603,0.0644 -0.0603,0.0644 h -1.11161 c -0.0603,0 -0.0603,0.0603 -0.0603,0.0603 v 3.45125 c 0,0.0641 0,0.0641 -0.0603,0.0641 z m 3.51144,-4.31809 c 0,-0.0603 0.0641,-0.0603 0.0641,-0.0603 h 2.83325 c 0.0641,0 0.0641,0 0.0641,0.0603 v 0.67822 c 0,0.0644 0,0.0644 -0.0641,0.0644 h -1.84603 c -0.0641,0 -0.0641,0 -0.0641,0.0603 v 0.86279 c 0,0 0,0 0.0641,0 h 1.54101 c 0.0603,0 0.0603,0.0603 0.0603,0.0603 v 0.74243 c 0,0 0,0.0603 -0.0603,0.0603 h -1.54101 c -0.0641,0 -0.0641,0 -0.0641,0 v 0.92703 c 0,0 0,0.0603 0.0641,0.0603 h 1.84603 c 0.0641,0 0.0641,0 0.0641,0.0603 v 0.67822 c 0,0.0644 0,0.0644 -0.0641,0.0644 h -2.83325 c 0,0 -0.0641,0 -0.0641,-0.0644 z m 7.03093,4.31809 c 0,0 -0.0641,0 -0.0641,-0.0641 l -0.80263,-1.60123 h -0.55378 c -0.0603,0 -0.0603,0 -0.0603,0 v 1.60123 c 0,0.0641 0,0.0641 -0.0603,0.0641 h -0.80263 c -0.0641,0 -0.0641,0 -0.0641,-0.0641 v -4.25387 c 0,-0.0603 0,-0.0603 0.0641,-0.0603 h 1.72564 c 0.24491,0 0.42939,0 0.61799,0.0603 0.18464,0.0644 0.36921,0.18463 0.48962,0.30901 0.12436,0.12435 0.24871,0.2487 0.30902,0.43342 0.0641,0.18463 0.12435,0.3692 0.12435,0.55381 0,0.24491 -0.12435,0.49358 -0.2487,0.73841 -0.12027,0.18463 -0.30499,0.36918 -0.55381,0.49358 l 0.86282,1.72564 c 0,0 0,0 0,0.0641 0,0 0,0 -0.0603,0 z m -0.67819,-2.46804 c 0.18463,0 0.36918,-0.0603 0.4896,-0.18463 0.0641,-0.0603 0.12435,-0.24492 0.12435,-0.36921 0,-0.18463 -0.0603,-0.30901 -0.12435,-0.43342 -0.12027,-0.0603 -0.30499,-0.12027 -0.4896,-0.12027 H -276.06 c -0.0603,0 -0.0603,0 -0.0603,0.0603 v 0.9872 c 0,0 0,0.0603 0.0603,0.0603 z m 4.43447,-1.85005 c 0,-0.0603 0,-0.0603 0.0641,-0.0603 h 0.8026 c 0.0603,0 0.0603,0 0.0603,0.0603 l 1.54104,4.25388 c 0,0.0641 0,0.0641 -0.0603,0.0641 h -0.86684 c 0,0 -0.0603,0 -0.0603,-0.0641 l -0.24491,-0.79861 h -1.54102 l -0.2487,0.79861 c 0,0.0641 -0.0603,0.0641 -0.12027,0.0641 h -0.80263 c -0.0641,0 -0.0641,0 -0.0641,-0.0641 z m 0.98723,2.65265 -0.49363,-1.54101 h -0.0603 l -0.49362,1.54101 z m 2.71283,0.67821 c 0,-0.12435 -0.0603,-0.18463 -0.0603,-0.2487 0,-0.0603 0,-0.12027 -0.0641,-0.24491 0,-0.0603 0,-0.18463 0,-0.30901 0,-0.12435 0,-0.24492 0,-0.42937 0,-0.12435 0,-0.30904 0,-0.43342 0,-0.12435 0,-0.18463 0,-0.30901 0.0641,-0.0603 0.0641,-0.12028 0.0641,-0.24492 0,-0.0603 0.0603,-0.12435 0.0603,-0.18463 0.12436,-0.36921 0.30901,-0.61802 0.55381,-0.80263 0.30901,-0.18463 0.61799,-0.30901 0.98722,-0.30901 0.4334,0 0.73842,0.12435 0.98721,0.30901 0.24491,0.12435 0.4294,0.36921 0.5538,0.67822 0.0603,0.0603 0.0603,0.0603 0,0.12435 l -0.73841,0.30898 c 0,0 -0.0641,0 -0.0641,-0.0641 -0.0603,-0.12027 -0.12028,-0.24491 -0.24492,-0.3692 -0.12435,-0.0603 -0.24491,-0.12435 -0.43339,-0.12435 -0.18463,0 -0.3692,0.0644 -0.42943,0.12435 -0.12435,0.12435 -0.18464,0.2487 -0.2487,0.3692 0,0.0641 -0.0603,0.0641 -0.0603,0.12436 0,0.0603 0,0.12434 0,0.18463 0,0.0603 0,0.12435 0,0.24491 0,0.12435 0,0.2487 0,0.37326 0,0.18463 0,0.30496 0,0.42937 0,0.0643 0,0.18463 0,0.2487 0,0.0603 0,0.12027 0,0.18463 0,0 0.0603,0.0603 0.0603,0.12027 0.0641,0.12435 0.12435,0.2487 0.2487,0.30901 0.0603,0.12435 0.24492,0.12435 0.42943,0.12435 0.18871,0 0.30898,0 0.43339,-0.12435 0.12436,-0.0603 0.18464,-0.18463 0.24492,-0.3692 h 0.0641 l 0.73841,0.30901 c 0.0603,0 0.0603,0.0603 0,0.0603 -0.12434,0.30901 -0.30897,0.55381 -0.5538,0.74243 -0.2487,0.18463 -0.55381,0.24491 -0.98721,0.24491 -0.36923,0 -0.67821,-0.0603 -0.98722,-0.24491 -0.24492,-0.18871 -0.42941,-0.49361 -0.55381,-0.80263 z m 5.54609,0.98723 c -0.0603,0 -0.0603,0 -0.0603,-0.0641 v -3.45125 c 0,0 0,-0.0603 -0.0603,-0.0603 h -1.11164 c -0.0603,0 -0.0603,0 -0.0603,-0.0644 v -0.67822 c 0,-0.0603 0,-0.0603 0.0603,-0.0603 h 3.26665 c 0.0641,0 0.0641,0 0.0641,0.0603 v 0.67822 c 0,0.0644 0,0.0644 -0.0641,0.0644 h -1.10762 c -0.0603,0 -0.0603,0.0603 -0.0603,0.0603 v 3.45125 c 0,0.0641 0,0.0641 -0.0641,0.0641 z m 3.57566,-4.31809 c 0,-0.0603 0,-0.0603 0.0641,-0.0603 h 0.7986 c 0.0641,0 0.0641,0 0.0641,0.0603 v 4.25388 c 0,0.0641 0,0.0641 -0.0641,0.0641 h -0.7986 c -0.0641,0 -0.0641,0 -0.0641,-0.0641 z m 4.3181,4.37829 c -0.37323,0 -0.74244,-0.0603 -0.98723,-0.24492 -0.30901,-0.18871 -0.49362,-0.43342 -0.61802,-0.80262 -0.0603,-0.0644 -0.0603,-0.18464 -0.0603,-0.2487 0,-0.0603 -0.0641,-0.12028 -0.0641,-0.24492 0,-0.0603 0,-0.18463 0,-0.30901 0,-0.12435 0,-0.24491 0,-0.42937 0,-0.12435 0,-0.30904 0,-0.43342 0,-0.0603 0,-0.18463 0,-0.30901 0,-0.0603 0.0641,-0.12027 0.0641,-0.24492 0,-0.0603 0,-0.12434 0.0603,-0.18463 0.12435,-0.3692 0.30901,-0.61802 0.61802,-0.80262 0.24491,-0.18463 0.614,-0.30901 0.98723,-0.30901 0.36921,0 0.73841,0.12435 0.9832,0.30901 0.30901,0.18463 0.49363,0.43342 0.618,0.80262 0,0.0603 0.0603,0.12435 0.0603,0.18463 0,0.12436 0,0.18464 0,0.24492 0.0641,0.12435 0.0641,0.2487 0.0641,0.30901 0,0.12435 0,0.30898 0,0.43342 0,0.18463 0,0.30496 0,0.42937 0,0.12435 0,0.2487 -0.0641,0.30901 0,0.12435 0,0.18463 0,0.24492 0,0.0644 -0.0603,0.18463 -0.0603,0.2487 -0.12435,0.3692 -0.30899,0.614 -0.618,0.80262 -0.24491,0.18463 -0.61399,0.24492 -0.9832,0.24492 z m 0,-0.86282 c 0.18463,0 0.30499,0 0.4294,-0.12435 0.12435,-0.0603 0.18464,-0.18464 0.2487,-0.30902 0,-0.0603 0,-0.12027 0.0603,-0.18463 0,0 0,-0.0603 0,-0.12027 0,-0.12435 0,-0.18463 0,-0.30901 0,-0.0644 0,-0.18463 0,-0.36918 0,-0.12435 0,-0.2487 0,-0.37325 0,-0.0603 0,-0.18463 0,-0.24492 0,-0.0603 0,-0.12435 0,-0.18463 -0.0603,-0.0603 -0.0603,-0.0603 -0.0603,-0.12435 -0.0641,-0.12027 -0.12435,-0.24491 -0.2487,-0.3692 -0.12435,-0.0603 -0.24491,-0.12435 -0.4294,-0.12435 -0.18871,0 -0.37323,0.0644 -0.43343,0.12435 -0.12434,0.12435 -0.24491,0.2487 -0.24491,0.3692 -0.0641,0.0641 -0.0641,0.0641 -0.0641,0.12435 0,0.0603 0,0.12435 0,0.18463 0,0.0603 0,0.18464 -0.0603,0.24492 0,0.12435 0,0.2487 0,0.37325 0,0.18463 0,0.30497 0,0.36918 0.0603,0.12435 0.0603,0.18463 0.0603,0.30901 0,0.0603 0,0.12027 0,0.12027 0,0.0641 0,0.12435 0.0641,0.18463 0,0.12436 0.12028,0.24871 0.24491,0.30902 0.0603,0.12435 0.24492,0.12435 0.43343,0.12435 z m 3.38704,-3.51547 c 0,-0.0603 0,-0.0603 0.0641,-0.0603 h 0.73841 c 0.0603,0 0.12436,0 0.12436,0.0603 l 1.54103,2.77705 h 0.0603 v -2.77705 c 0,-0.0603 0,-0.0603 0.0603,-0.0603 h 0.74242 c 0,0 0.0603,0 0.0603,0.0603 v 4.25388 c 0,0.0641 -0.0603,0.0641 -0.0603,0.0641 h -0.80261 c 0,0 -0.0603,0 -0.12435,-0.0641 l -1.54104,-2.77306 v 2.77306 c 0,0.0641 -0.0603,0.0641 -0.0603,0.0641 h -0.73837 c -0.0641,0 -0.0641,0 -0.0641,-0.0641 z m 7.58475,0 c 0,-0.0603 0.0603,-0.0603 0.0603,-0.0603 h 0.86279 c 0,0 0.0603,0 0.0603,0.0603 v 3.45527 h 1.97446 l 0.0603,0.0603 v 0.73841 c 0,0.0641 -0.0603,0.0641 -0.0603,0.0641 h -2.89748 c 0,0 -0.0603,0 -0.0603,-0.0641 z m 5.67048,0 c 0,-0.0603 0.0603,-0.0603 0.12028,-0.0603 h 0.80262 c 0,0 0.0641,0 0.0641,0.0603 l 1.47684,4.25388 c 0,0.0641 0,0.0641 0,0.0641 h -0.86283 c -0.0603,0 -0.0603,0 -0.0603,-0.0641 l -0.30901,-0.79861 h -1.54101 l -0.24491,0.79861 c 0,0.0641 0,0.0641 -0.0641,0.0641 h -0.86281 c 0,0 -0.0603,0 0,-0.0641 z m 0.98723,2.65265 -0.49362,-1.54101 -0.49361,1.54101 z m 2.95766,-2.65265 c 0,-0.0603 0,-0.0603 0.0603,-0.0603 h 1.66542 c 0.49361,0 0.86282,0.0603 1.10762,0.30901 0.18464,0.18463 0.30904,0.49361 0.30904,0.86282 0,0.24491 -0.0603,0.4294 -0.12435,0.55381 -0.12027,0.18463 -0.24492,0.30898 -0.3692,0.36921 0.0641,0 0.12434,0.0641 0.18462,0.12435 0.12435,0.0603 0.18464,0.12435 0.24871,0.24491 0,0.0644 0.0603,0.18871 0.12434,0.2487 0,0.12435 0,0.24491 0,0.3692 0,0.43342 -0.12434,0.80263 -0.37322,0.98723 -0.24491,0.18464 -0.67822,0.30901 -1.10762,0.30901 h -1.66541 c -0.0603,0 -0.0603,0 -0.0603,-0.0641 z m 1.66543,1.72561 c 0.18463,0 0.30498,-0.0603 0.3692,-0.12027 0.12026,-0.12435 0.18463,-0.2487 0.18463,-0.43342 0,-0.12027 -0.0641,-0.24491 -0.18463,-0.36921 -0.0641,-0.0603 -0.18463,-0.12435 -0.3692,-0.12435 h -0.67823 c -0.0641,0 -0.0641,0 -0.0641,0.0644 v 0.92302 c 0,0.0603 0,0.0603 0.0641,0.0603 z m -0.74244,1.78986 c 0,0 0,0 0.0641,0 h 0.67822 c 0.24491,0 0.3692,0 0.48959,-0.12435 0.0641,-0.0603 0.12436,-0.24492 0.12436,-0.36921 0,-0.18463 -0.0603,-0.30901 -0.12436,-0.4294 -0.12028,-0.12435 -0.24491,-0.12435 -0.48959,-0.12435 h -0.67822 c -0.0641,0 -0.0641,0 -0.0641,0 z m 5.55012,0.86282 c -0.43342,0 -0.74241,-0.0603 -1.05145,-0.24492 -0.24491,-0.18871 -0.42937,-0.43342 -0.55377,-0.80262 -0.0603,-0.0644 -0.0603,-0.18464 -0.0603,-0.2487 -0.0603,-0.0603 -0.0603,-0.12028 -0.0603,-0.24492 0,-0.0603 0,-0.18463 0,-0.30901 0,-0.12435 0,-0.24491 0,-0.42937 0,-0.12435 0,-0.30904 0,-0.43342 0,-0.0603 0,-0.18463 0,-0.30901 0,-0.0603 0,-0.12027 0.0603,-0.24492 0,-0.0603 0,-0.12434 0.0603,-0.18463 0.12434,-0.3692 0.30897,-0.61802 0.55377,-0.80262 0.30904,-0.18463 0.61803,-0.30901 1.05145,-0.30901 0.3692,0 0.67821,0.12435 0.98321,0.30901 0.30901,0.18463 0.49361,0.43342 0.61803,0.80262 0,0.0603 0.0603,0.12435 0.0603,0.18463 0,0.12436 0,0.18464 0,0.24492 0,0.12435 0.0641,0.2487 0.0641,0.30901 0,0.12435 0,0.30898 0,0.43342 0,0.18463 0,0.30496 0,0.42937 0,0.12435 -0.0641,0.2487 -0.0641,0.30901 0,0.12435 0,0.18463 0,0.24492 0,0.0644 -0.0603,0.18463 -0.0603,0.2487 -0.12436,0.3692 -0.30902,0.614 -0.61803,0.80262 -0.305,0.18463 -0.61401,0.24492 -0.98321,0.24492 z m 0,-0.86282 c 0.18463,0 0.30499,0 0.4294,-0.12435 0.12435,-0.0603 0.18463,-0.18464 0.2487,-0.30902 0,-0.0603 0,-0.12027 0,-0.18463 0.0603,0 0.0603,-0.0603 0.0603,-0.12027 0,-0.12435 0,-0.18463 0,-0.30901 0,-0.0644 0,-0.18463 0,-0.36918 0,-0.12435 0,-0.2487 0,-0.37325 0,-0.0603 0,-0.18463 0,-0.24492 0,-0.0603 0,-0.12435 -0.0603,-0.18463 0,-0.0603 0,-0.0603 0,-0.12435 -0.0641,-0.12027 -0.12435,-0.24491 -0.2487,-0.3692 -0.12435,-0.0603 -0.24492,-0.12435 -0.4294,-0.12435 -0.18464,0 -0.37322,0.0644 -0.49361,0.12435 -0.0641,0.12435 -0.18464,0.2487 -0.24871,0.3692 0,0.0641 0,0.0641 0,0.12435 0,0.0603 0,0.12435 0,0.18463 -0.0603,0.0603 -0.0603,0.18464 -0.0603,0.24492 0,0.12435 0,0.2487 0,0.37325 0,0.18463 0,0.30497 0,0.36918 0,0.12435 0,0.18463 0.0603,0.30901 0,0.0603 0,0.12027 0,0.12027 0,0.0641 0,0.12435 0,0.18463 0.0641,0.12436 0.18463,0.24871 0.24871,0.30902 0.12026,0.12435 0.30901,0.12435 0.49361,0.12435 z m 5.79089,0.80262 c -0.0603,0 -0.0603,0 -0.12028,-0.0641 l -0.74239,-1.60123 h -0.55384 c -0.0603,0 -0.0603,0 -0.0603,0 v 1.60123 c 0,0.0641 0,0.0641 -0.0641,0.0641 h -0.79861 c -0.0641,0 -0.0641,0 -0.0641,-0.0641 v -4.25387 c 0,-0.0603 0,-0.0603 0.0641,-0.0603 h 1.72561 c 0.24492,0 0.42943,0 0.61401,0.0603 0.18871,0.0644 0.37322,0.18463 0.49362,0.30901 0.12434,0.12435 0.18462,0.2487 0.309,0.43342 0.0603,0.18463 0.0603,0.3692 0.0603,0.55381 0,0.24491 -0.0603,0.49358 -0.18464,0.73841 -0.12027,0.18463 -0.30499,0.36918 -0.55381,0.49358 l 0.86283,1.72564 c 0,0 0,0 0,0.0641 z m -0.67822,-2.46804 c 0.18871,0 0.37322,-0.0603 0.43343,-0.18463 0.12434,-0.0603 0.18462,-0.24492 0.18462,-0.36921 0,-0.18463 -0.0603,-0.30901 -0.18462,-0.43342 -0.0603,-0.0603 -0.24493,-0.12027 -0.43343,-0.12027 h -0.73841 c -0.0603,0 -0.0603,0 -0.0603,0.0603 v 0.9872 c 0,0 0,0.0603 0.0603,0.0603 z m 4.37829,-1.85005 c 0,-0.0603 0.0603,-0.0603 0.12434,-0.0603 h 0.79861 c 0.0641,0 0.0641,0 0.0641,0.0603 l 1.47682,4.25388 c 0.0641,0.0641 0,0.0641 0,0.0641 h -0.86283 c -0.0603,0 -0.0603,0 -0.0603,-0.0641 l -0.24491,-0.79861 h -1.54101 l -0.24869,0.79861 c -0.0603,0.0641 -0.0603,0.0641 -0.12436,0.0641 h -0.86281 c 0,0 0,0 0,-0.0641 z m 0.98722,2.65265 -0.49361,-1.54101 -0.49361,1.54101 z m 3.51145,1.66544 c -0.0603,0 -0.0603,0 -0.0603,-0.0641 v -3.45125 l -0.0603,-0.0603 h -1.11164 c -0.0603,0 -0.0603,0 -0.0603,-0.0644 v -0.67822 c 0,-0.0603 0,-0.0603 0.0603,-0.0603 h 3.26668 c 0,0 0.0641,0 0.0641,0.0603 v 0.67822 c 0,0.0644 -0.0641,0.0644 -0.0641,0.0644 h -1.10761 c -0.0641,0 -0.0641,0.0603 -0.0641,0.0603 v 3.45125 c 0,0.0641 0,0.0641 -0.0603,0.0641 z m 5.0565,0.0603 c -0.43342,0 -0.73841,-0.0603 -1.04743,-0.24491 -0.24869,-0.18871 -0.4936,-0.43342 -0.55781,-0.80263 -0.0603,-0.0644 -0.0603,-0.18463 -0.0603,-0.2487 -0.0603,-0.0603 -0.0603,-0.12027 -0.0603,-0.24491 0,-0.0603 0,-0.18463 0,-0.30901 0,-0.12435 0,-0.24492 0,-0.4294 0,-0.12435 0,-0.30901 0,-0.43339 0,-0.0603 0,-0.18463 0,-0.30901 0,-0.0603 0,-0.12028 0.0603,-0.24492 0,-0.0603 0,-0.12435 0.0603,-0.18463 0.0641,-0.36921 0.30903,-0.61802 0.55781,-0.80262 0.30902,-0.18464 0.61401,-0.30902 1.04743,-0.30902 0.3692,0 0.67822,0.12435 0.98723,0.30902 0.305,0.18463 0.48959,0.43341 0.61401,0.80262 0,0.0603 0,0.12435 0.0641,0.18463 0,0.12435 0,0.18463 0,0.24492 0,0.12435 0,0.2487 0.0603,0.30901 0,0.12435 0,0.30898 0,0.43342 0,0.18463 0,0.30496 0,0.42937 -0.0603,0.12435 -0.0603,0.2487 -0.0603,0.30901 0,0.12435 0,0.18463 0,0.24491 -0.0641,0.0644 -0.0641,0.18464 -0.0641,0.2487 -0.12436,0.36921 -0.30901,0.61401 -0.61401,0.80263 -0.30901,0.18463 -0.61803,0.24491 -0.98723,0.24491 z m 0,-0.86282 c 0.18463,0 0.30901,0 0.4294,-0.12435 0.12435,-0.0603 0.18463,-0.18463 0.24871,-0.30901 0,-0.0603 0,-0.12027 0,-0.18463 0,0 0.0603,-0.0603 0.0603,-0.12027 0,-0.12435 0,-0.18463 0,-0.30901 0,-0.0644 0,-0.18464 0,-0.36921 0,-0.12435 0,-0.2487 0,-0.37323 0,-0.0603 0,-0.18463 0,-0.24491 0,-0.0603 -0.0603,-0.12435 -0.0603,-0.18463 0,-0.0603 0,-0.0603 0,-0.12435 -0.0641,-0.12027 -0.12436,-0.24491 -0.24871,-0.36921 -0.12027,-0.0603 -0.24491,-0.12435 -0.4294,-0.12435 -0.18464,0 -0.3692,0.0644 -0.49361,0.12435 -0.12435,0.12435 -0.18463,0.2487 -0.24491,0.36921 0,0.0641 0,0.0641 0,0.12435 0,0.0603 0,0.12435 -0.0641,0.18463 0,0.0603 0,0.18463 0,0.24491 0,0.12436 0,0.24871 0,0.37323 0,0.18463 0,0.30499 0,0.36921 0,0.12434 0,0.18463 0,0.30901 0.0641,0.0603 0.0641,0.12027 0.0641,0.12027 0,0.0641 0,0.12435 0,0.18463 0.0603,0.12435 0.12026,0.2487 0.24491,0.30901 0.12434,0.12435 0.30901,0.12435 0.49361,0.12435 z m 5.79492,0.80263 c -0.0641,0 -0.0641,0 -0.12435,-0.0641 l -0.73841,-1.60123 h -0.55784 c -0.0603,0 -0.0603,0 -0.0603,0 v 1.60123 c 0,0.0641 0,0.0641 -0.0603,0.0641 h -0.86283 c 0,0 -0.0641,0 -0.0641,-0.0641 v -4.25388 c 0,-0.0603 0.0641,-0.0603 0.0641,-0.0603 h 1.78584 c 0.2487,0 0.43342,0 0.61802,0.0603 0.18463,0.0644 0.30499,0.18464 0.49362,0.30902 0.12026,0.12435 0.18462,0.2487 0.24491,0.43342 0.12435,0.18463 0.12435,0.3692 0.12435,0.5538 0,0.24492 -0.0641,0.49359 -0.18464,0.73841 -0.12434,0.18464 -0.37322,0.36918 -0.61801,0.49359 l 0.923,1.72564 c 0,0 0,0 0,0.0641 -0.0603,0 -0.0603,0 -0.0603,0 z m -0.67821,-2.46804 c 0.18463,0 0.30901,-0.0603 0.42939,-0.18464 0.12435,-0.0603 0.18464,-0.24491 0.18464,-0.3692 0,-0.18463 -0.0603,-0.30901 -0.18464,-0.43342 -0.12027,-0.0603 -0.24491,-0.12027 -0.42939,-0.12027 h -0.74245 c -0.0603,0 -0.0603,0 -0.0603,0.0603 v 0.9872 c 0,0 0,0.0603 0.0603,0.0603 z m 4.00505,2.46804 c 0,0 -0.0603,0 -0.0603,-0.0641 v -1.66143 l -1.29623,-2.59245 c 0,-0.0603 0,-0.0603 0.0641,-0.0603 h 0.86283 c 0,0 0.0603,0 0.0603,0.0603 l 0.80259,1.60526 h 0.0603 l 0.7384,-1.60526 c 0.0641,-0.0603 0.0641,-0.0603 0.12436,-0.0603 h 0.80262 c 0.0603,0 0.0603,0 0.0603,0 0,0 0,0 0,0.0603 l -1.29221,2.59245 v 1.66143 c 0,0.0641 0,0.0641 -0.0641,0.0641"
         id="path265" />
    </g>
  </g>
  <path
     style="opacity:1;fill:none;fill-opacity:1;stroke:#000000;stroke-width:0.13229167;stroke-linecap:butt;stroke-linejoin:round;stroke-miterlimit:4;stroke-dasharray:none;stroke-dashoffset:0;stroke-opacity:1"
     d="M 0,0.06614584 H 162.53544"
     id="path819"
     inkscape:connector-curvature="0" />
  <g
     transform="matrix(0.16809869,0,0,0.16809869,0.00369192,1.3711644)"
     id="surface56">
    <path
       inkscape:connector-curvature="0"
       style="fill:#21214c;fill-opacity:1;fill-rule:nonzero;stroke:none"
       d="m 4.089844,52.519531 1.148437,-0.867187 -0.00781,-0.02344 -1.449219,-0.0078 z M 6.222656,50.59375 c 0.042969,0 0.078125,0.02344 0.09375,0.06641 l 0.378907,1.113282 c 0.015625,0.04687 0,0.08203 -0.03125,0.109375 l -3.503907,2.9375 c -0.03125,0.02344 -0.0625,0.01172 -0.078125,-0.02734 L 2.699219,53.671875 c -0.015625,-0.05078 0,-0.08594 0.03125,-0.113281 L 3.296875,53.125 2.785156,51.617188 H 2.070313 c -0.042969,0 -0.078125,-0.01953 -0.09375,-0.0625 L 1.597656,50.433594 c -0.015625,-0.03906 0.00391,-0.06641 0.042969,-0.06641 l 4.582031,0.226562"
       id="path13" />
    <path
       inkscape:connector-curvature="0"
       style="fill:#21214c;fill-opacity:1;fill-rule:nonzero;stroke:none"
       d="m 6.722656,58.355469 0.988282,-1.050781 -0.00781,-0.01953 -1.429687,0.234375 z M 8.507813,56.09375 c 0.039062,-0.0039 0.078125,0.0078 0.101562,0.05078 l 0.554688,1.035157 c 0.023437,0.04297 0.015625,0.07813 -0.011719,0.113281 L 6.191406,60.78125 c -0.027343,0.03125 -0.0625,0.02344 -0.082031,-0.01563 l -0.5625,-1.042969 C 5.523438,59.679688 5.53125,59.640625 5.558594,59.613281 L 6.046875,59.085938 5.289063,57.6875 4.585938,57.808594 c -0.042969,0.0078 -0.078125,-0.0039 -0.101563,-0.05078 l -0.5625,-1.039063 c -0.019531,-0.03516 -0.00781,-0.06641 0.035156,-0.07422 L 8.507813,56.09375"
       id="path15" />
    <path
       inkscape:connector-curvature="0"
       style="fill:#21214c;fill-opacity:1;fill-rule:nonzero;stroke:none"
       d="m 10.875,60.074219 c 0.03125,-0.02344 0.06641,-0.01563 0.09375,0.01953 l 0.679688,0.890625 c 0.02344,0.03516 0.02344,0.07422 -0.0078,0.09766 l -2.613281,1.988282 c -0.019531,0.01563 -0.019531,0.03906 -0.00391,0.05859 l 1.253906,1.648438 c 0.02734,0.03516 0.02344,0.07031 -0.0078,0.09375 L 9.570313,65.40625 C 9.539063,65.429688 9.5,65.421875 9.476563,65.386719 L 7.472656,62.757813 c -0.027343,-0.03516 -0.023437,-0.07422 0.00781,-0.09766 L 10.875,60.074219"
       id="path17" />
    <path
       inkscape:connector-curvature="0"
       style="fill:#21214c;fill-opacity:1;fill-rule:nonzero;stroke:none"
       d="m 14.230469,66.574219 c 0.273437,0.265625 0.519531,0.300781 0.730469,0.08203 0.21875,-0.222656 0.175781,-0.460937 -0.101563,-0.726562 l -0.367187,-0.359375 c -0.01953,-0.01953 -0.03906,-0.01953 -0.05859,0 l -0.574219,0.59375 c -0.01953,0.01563 -0.01953,0.03516 0.0039,0.05859 z m -1.601563,0.917969 0.414063,0.398437 c 0.28125,0.277344 0.550781,0.292969 0.773437,0.05859 0.210938,-0.214844 0.199219,-0.492188 -0.08594,-0.765625 l -0.41406,-0.40234 c -0.01953,-0.01953 -0.03906,-0.01953 -0.05859,0 L 12.625,67.433594 c -0.01953,0.01953 -0.01563,0.03906 0.0039,0.05859 z m 1.476563,-3.402344 c 0.02734,-0.02734 0.06641,-0.02734 0.09766,0.0039 l 1.429688,1.386719 c 0.785156,0.757812 0.820312,1.449219 0.332031,1.949219 -0.316406,0.324218 -0.699219,0.390625 -1.085938,0.261718 l -0.0078,0.0078 c 0.171875,0.339844 0.148437,0.828125 -0.207031,1.195312 -0.601563,0.617188 -1.367188,0.441407 -2.109375,-0.273437 L 11.140625,67.25 c -0.03125,-0.03125 -0.03125,-0.06641 -0.0039,-0.09766 l 2.96875,-3.0625"
       id="path19" />
    <path
       inkscape:connector-curvature="0"
       style="fill:#21214c;fill-opacity:1;fill-rule:nonzero;stroke:none"
       d="m 18.523438,71.757813 c 0.132812,-0.08984 0.261718,-0.246094 0.5625,-0.671875 0.300781,-0.429688 0.40625,-0.601563 0.445312,-0.757813 0.07031,-0.246094 -0.03125,-0.492187 -0.289062,-0.675781 -0.257813,-0.179688 -0.523438,-0.191406 -0.734375,-0.03906 -0.132813,0.08594 -0.261719,0.242188 -0.5625,0.667969 -0.300782,0.429688 -0.40625,0.601563 -0.445313,0.757813 -0.07031,0.25 0.03125,0.492187 0.289063,0.675781 0.257812,0.179687 0.523437,0.191406 0.734375,0.04297 z m -2.195313,-1.148438 c 0.09766,-0.339844 0.226563,-0.570312 0.570313,-1.058594 0.347656,-0.492187 0.519531,-0.6875 0.808593,-0.898437 0.625,-0.4375 1.414063,-0.324219 2.121094,0.171875 0.707031,0.496094 1.078125,1.203125 0.875,1.9375 -0.09375,0.34375 -0.222656,0.566406 -0.570312,1.058594 -0.347657,0.492187 -0.511719,0.691406 -0.808594,0.894531 -0.625,0.4375 -1.414063,0.324219 -2.121094,-0.171875 C 16.5,72.050781 16.125,71.34375 16.328125,70.609375"
       id="path21" />
    <path
       inkscape:connector-curvature="0"
       style="fill:#21214c;fill-opacity:1;fill-rule:nonzero;stroke:none"
       d="m 24.621094,73.34375 c 0.125,-0.257812 0.01172,-0.515625 -0.3125,-0.671875 L 23.703125,72.375 c -0.02734,-0.01172 -0.04687,-0.0078 -0.05469,0.01563 l -0.375,0.765625 c -0.01172,0.02344 -0.0039,0.04297 0.01953,0.05469 l 0.609375,0.296875 c 0.320312,0.160156 0.59375,0.08984 0.71875,-0.164063 z m -1.242188,2.695313 c -0.05859,-0.03125 -0.07031,-0.05469 -0.07031,-0.105469 l -0.0078,-1.675781 -0.417968,-0.203125 c -0.02344,-0.01172 -0.04297,-0.0078 -0.05469,0.01563 l -0.640625,1.3125 c -0.01563,0.03516 -0.05469,0.04687 -0.09375,0.02734 l -1.003906,-0.492187 c -0.03906,-0.01953 -0.05469,-0.05469 -0.03906,-0.08984 l 1.871094,-3.835937 c 0.01953,-0.03516 0.05469,-0.04687 0.09375,-0.02734 l 1.785156,0.875 c 1.007813,0.492187 1.324219,1.304687 0.960938,2.046875 -0.242188,0.492187 -0.695313,0.769531 -1.261719,0.75 l 0.07422,1.902344 c 0,0.04297 -0.03516,0.07031 -0.08203,0.04687 l -1.113282,-0.546875"
       id="path23" />
    <path
       inkscape:connector-curvature="0"
       style="fill:#21214c;fill-opacity:1;fill-rule:nonzero;stroke:none"
       d="m 27.339844,75.347656 c 0.175781,-0.578125 0.277344,-0.816406 0.488281,-1.105468 0.457031,-0.609375 1.242188,-0.75 2.070313,-0.496094 0.859375,0.261719 1.328125,0.796875 1.421875,1.414062 0.0078,0.04687 -0.01563,0.08203 -0.0625,0.08594 l -0.996094,0.07031 c -0.04687,0.0039 -0.08594,-0.01563 -0.09766,-0.05469 -0.08594,-0.277344 -0.238282,-0.445313 -0.5625,-0.542969 -0.3125,-0.09766 -0.5625,-0.02344 -0.714844,0.1875 -0.101563,0.128906 -0.171875,0.3125 -0.324219,0.8125 -0.152344,0.5 -0.191406,0.699219 -0.1875,0.855469 0.01953,0.261719 0.191406,0.464844 0.527344,0.566406 0.300781,0.09375 0.578125,0.04687 0.71875,-0.148437 0.05078,-0.0625 0.08984,-0.144532 0.125,-0.257813 0.0078,-0.02344 -0.0039,-0.04297 -0.03125,-0.05078 L 29.207031,76.53125 c -0.04297,-0.01563 -0.0625,-0.04687 -0.05078,-0.08203 L 29.371094,75.75 c 0.01172,-0.03906 0.04687,-0.05469 0.08594,-0.04297 L 31.125,76.214844 c 0.04297,0.01563 0.0625,0.04687 0.05078,0.08594 l -0.09766,0.320313 c -0.121094,0.398437 -0.246094,0.707031 -0.421875,0.9375 -0.460937,0.625 -1.234375,0.800781 -2.085937,0.542969 -0.832032,-0.253907 -1.402344,-0.804688 -1.441407,-1.570313 -0.01172,-0.351562 0.03516,-0.609375 0.210938,-1.183594"
       id="path25" />
    <g
       style="clip-rule:nonzero"
       clip-path="url(#clip1)"
       id="g29">
      <path
         inkscape:connector-curvature="0"
         style="fill:#21214c;fill-opacity:1;fill-rule:nonzero;stroke:none"
         d="m 36.351563,77.910156 0.128906,-2.628906 c 0.0039,-0.03906 0.03125,-0.0625 0.07813,-0.05859 l 1.117187,0.05469 c 0.04297,0.0039 0.07031,0.03125 0.07031,0.07031 l -0.132813,2.699219 c -0.02344,0.4375 0.238282,0.703125 0.644532,0.722656 0.425781,0.02344 0.6875,-0.214843 0.710937,-0.652343 l 0.132813,-2.699219 c 0,-0.03906 0.03125,-0.0625 0.07422,-0.0625 l 1.121094,0.05469 c 0.04297,0.0039 0.07031,0.03125 0.06641,0.07031 l -0.128906,2.628906 c -0.05859,1.167969 -0.863281,1.734375 -2.027344,1.675781 -1.183593,-0.05859 -1.914062,-0.707031 -1.855468,-1.875"
         id="path27" />
    </g>
    <g
       style="clip-rule:nonzero"
       clip-path="url(#clip2)"
       id="g33">
      <path
         inkscape:connector-curvature="0"
         style="fill:#21214c;fill-opacity:1;fill-rule:nonzero;stroke:none"
         d="m 42.28125,75.421875 c -0.0078,-0.03906 0.01953,-0.06641 0.0625,-0.07422 l 1.050781,-0.113281 c 0.05078,-0.0039 0.101563,0.0078 0.128907,0.05078 l 1.734375,2.316407 0.02734,-0.0039 -0.269531,-2.476562 c -0.0039,-0.03516 0.02344,-0.06641 0.06641,-0.07031 l 1,-0.109375 C 46.125,74.9375 46.15625,74.960938 46.160156,75 L 46.625,79.242188 c 0.0039,0.03906 -0.02344,0.07031 -0.06641,0.07422 l -1.050781,0.113282 c -0.05078,0.0039 -0.101563,-0.0078 -0.128907,-0.05078 l -1.71875,-2.3125 -0.04297,0.0039 0.269531,2.472656 c 0.0039,0.03516 -0.02344,0.06641 -0.06641,0.07031 l -1,0.109375 c -0.04297,0.0039 -0.07422,-0.01953 -0.07813,-0.05469 L 42.28125,75.421875"
         id="path31" />
    </g>
    <path
       inkscape:connector-curvature="0"
       style="fill:#21214c;fill-opacity:1;fill-rule:nonzero;stroke:none"
       d="m 48.121094,74.5625 c -0.01172,-0.03516 0.01172,-0.07031 0.05469,-0.07813 l 1.089844,-0.261719 c 0.03906,-0.01172 0.07422,0.0078 0.08203,0.04297 l 1.003907,4.15625 c 0.01172,0.03516 -0.01172,0.07031 -0.05078,0.07813 l -1.09375,0.261719 c -0.03906,0.01172 -0.07422,-0.0078 -0.08203,-0.04687 L 48.121094,74.5625"
       id="path35" />
    <path
       inkscape:connector-curvature="0"
       style="fill:#21214c;fill-opacity:1;fill-rule:nonzero;stroke:none"
       d="m 54.0625,77.328125 c -0.04687,0.01563 -0.08203,0.01172 -0.109375,-0.02734 l -2.976562,-3.429687 c -0.02734,-0.03125 -0.01172,-0.07031 0.03516,-0.08984 l 1.101562,-0.417969 c 0.04687,-0.01953 0.07813,-0.0078 0.109375,0.02734 L 53.980469,75.558594 54,75.550781 53.839844,72.773438 c -0.0039,-0.04687 0.01563,-0.07813 0.0625,-0.09375 l 1.09375,-0.417969 c 0.04687,-0.01953 0.07813,0.0039 0.07813,0.04687 l 0.0625,4.539062 c 0.0039,0.04687 -0.01563,0.07813 -0.0625,0.09375 L 54.0625,77.328125"
       id="path37" />
    <path
       inkscape:connector-curvature="0"
       style="fill:#21214c;fill-opacity:1;fill-rule:nonzero;stroke:none"
       d="m 56.539063,71.566406 c -0.01953,-0.03125 -0.0078,-0.07031 0.03125,-0.08984 l 2.773437,-1.582032 c 0.03906,-0.01953 0.07813,-0.01172 0.09766,0.02344 l 0.414063,0.722656 c 0.01563,0.03516 0.0039,0.07031 -0.03125,0.09375 l -1.703125,0.964844 c -0.02734,0.01563 -0.03125,0.03516 -0.01953,0.05859 l 0.328125,0.574218 c 0.01563,0.02734 0.03516,0.03125 0.05859,0.01563 l 1.398438,-0.796875 c 0.03906,-0.01953 0.07422,-0.01172 0.09375,0.01953 l 0.402344,0.707031 c 0.01953,0.03516 0.0078,0.07031 -0.02734,0.09375 l -1.398438,0.796875 c -0.02734,0.01172 -0.03125,0.03125 -0.01953,0.05469 l 0.351563,0.609375 c 0.01172,0.02344 0.03125,0.02734 0.05469,0.01172 L 61.046875,72.875 c 0.03906,-0.01953 0.07422,-0.01172 0.09375,0.01953 l 0.414063,0.726563 c 0.01953,0.03125 0.0078,0.07031 -0.02734,0.08984 L 58.75,75.292969 c -0.03906,0.01953 -0.07813,0.01172 -0.09766,-0.02344 l -2.113281,-3.703125"
       id="path39" />
    <path
       inkscape:connector-curvature="0"
       style="fill:#21214c;fill-opacity:1;fill-rule:nonzero;stroke:none"
       d="m 63.816406,68.378906 c -0.175781,-0.222656 -0.457031,-0.230468 -0.738281,-0.0078 l -0.53125,0.421875 c -0.01953,0.01563 -0.02344,0.03516 -0.0078,0.05469 l 0.527343,0.667969 c 0.01563,0.02344 0.03516,0.02344 0.05859,0.0039 l 0.53125,-0.417968 c 0.28125,-0.222657 0.339844,-0.496094 0.160156,-0.722657 z m 1.890625,2.292969 c -0.05078,0.03906 -0.07813,0.03516 -0.125,0.01172 l -1.507812,-0.714844 -0.367188,0.289063 c -0.02344,0.01563 -0.02734,0.03516 -0.01172,0.05469 l 0.90625,1.148438 c 0.02344,0.03125 0.01953,0.07031 -0.01563,0.09375 L 63.707031,72.25 c -0.03516,0.02734 -0.07422,0.02734 -0.09766,-0.0039 L 60.96484,68.894537 c -0.02344,-0.02734 -0.01563,-0.06641 0.01563,-0.09375 l 1.5625,-1.234375 c 0.878906,-0.695312 1.746094,-0.632812 2.257812,0.01953 0.34375,0.429687 0.394532,0.960937 0.132813,1.464843 l 1.742187,0.753907 c 0.03906,0.01953 0.04687,0.0625 0.0078,0.09375 l -0.976563,0.773437"
       id="path41" />
    <path
       inkscape:connector-curvature="0"
       style="fill:#21214c;fill-opacity:1;fill-rule:nonzero;stroke:none"
       d="m 67.945313,67.984375 c -0.04297,0.0078 -0.08203,-0.01953 -0.08203,-0.06641 l -0.0625,-0.9375 c -0.0039,-0.04687 0.02344,-0.07813 0.0625,-0.08203 0.371094,-0.05859 0.835938,-0.253907 1.164063,-0.613282 0.308594,-0.332031 0.34375,-0.617187 0.164062,-0.785156 -0.136718,-0.128906 -0.320312,-0.109375 -0.6875,0.203125 l -0.199218,0.167969 c -0.816407,0.683594 -1.519532,0.8125 -2.121094,0.253906 -0.601563,-0.554687 -0.523438,-1.449219 0.226562,-2.261719 0.457032,-0.496093 1.023438,-0.832031 1.539063,-0.949218 0.04297,-0.01172 0.07422,0.0078 0.08203,0.05469 l 0.152344,0.875 c 0.0039,0.03906 -0.01563,0.07422 -0.05469,0.08594 -0.386718,0.113281 -0.726562,0.296875 -0.988281,0.582031 -0.242187,0.261719 -0.25,0.5 -0.09375,0.644531 0.140625,0.128906 0.339844,0.09766 0.695313,-0.207031 L 67.9375,64.78125 c 0.828125,-0.695312 1.511719,-0.800781 2.121094,-0.238281 0.601562,0.554687 0.566406,1.464844 -0.320313,2.421875 -0.539062,0.585937 -1.308593,0.96875 -1.792968,1.019531"
       id="path43" />
    <path
       inkscape:connector-curvature="0"
       style="fill:#21214c;fill-opacity:1;fill-rule:nonzero;stroke:none"
       d="m 68.945313,61.042969 c -0.03125,-0.02344 -0.03516,-0.05859 -0.01172,-0.09766 l 0.65625,-0.910157 c 0.02344,-0.03516 0.0625,-0.04297 0.09375,-0.01953 l 3.464844,2.492188 c 0.03125,0.01953 0.03906,0.05859 0.01172,0.09375 l -0.652343,0.910156 c -0.02734,0.03906 -0.06641,0.04297 -0.09766,0.01953 l -3.464843,-2.488281"
       id="path45" />
    <path
       inkscape:connector-curvature="0"
       style="fill:#21214c;fill-opacity:1;fill-rule:nonzero;stroke:none"
       d="m 75.125,59.5 -0.01172,0.01953 c -0.0078,0.01172 -0.01563,0.01563 -0.03516,0.02344 -0.0078,0 -0.01953,0.0039 -0.02734,0 l -0.01953,-0.01172 -2.871094,-1.589844 c -0.01953,-0.01172 -0.03516,-0.0039 -0.05078,0.01172 l -0.0039,0.0039 -0.582031,1.054688 -0.0078,0.01563 c -0.0078,0.01563 -0.01953,0.01953 -0.02734,0.02344 h -0.0078 c 0,0 -0.0078,0 -0.0078,0.0039 -0.01563,0 -0.02734,-0.0039 -0.03906,-0.01172 l -0.769531,-0.425781 c -0.02734,-0.01563 -0.03906,-0.04687 -0.03125,-0.07422 l 0.01172,-0.01953 1.8125,-3.285157 c 0.0078,-0.01953 0.01953,-0.03125 0.03906,-0.03906 0,0 0.0078,0 0.01563,0.0039 0.0078,-0.0039 0.02344,-0.0039 0.03516,0 l 0.769531,0.425781 c 0.01563,0.01172 0.02734,0.02734 0.03125,0.04687 0.0039,0.0078 0.0039,0.02344 -0.0039,0.03516 l -0.0078,0.01563 -0.578125,1.050781 c -0.0078,0.01172 -0.01172,0.01953 -0.0078,0.02734 -0.0039,0.0039 0,0.0078 0.0039,0.01953 l 0.01563,0.0078 2.875,1.59375 0.01563,0.0078 c 0.01563,0.01563 0.01563,0.02344 0.01563,0.05078 0.0039,0.0078 -0.0039,0.01953 -0.01172,0.03125 L 75.125,59.5"
       id="path47" />
    <g
       style="clip-rule:nonzero"
       clip-path="url(#clip3)"
       id="g51">
      <path
         inkscape:connector-curvature="0"
         style="fill:#21214c;fill-opacity:1;fill-rule:nonzero;stroke:none"
         d="m 77.707031,54.046875 c -0.01563,0.03906 -0.04687,0.05859 -0.08594,0.04297 l -1.535156,-0.5625 -2.96875,0.484375 c -0.04297,0 -0.0625,-0.03125 -0.04687,-0.07813 L 73.457031,52.875 c 0.01953,-0.04687 0.05078,-0.07422 0.101563,-0.08203 l 1.6875,-0.253906 0.0078,-0.01953 -1.125,-1.273437 c -0.03906,-0.03906 -0.03906,-0.08594 -0.02344,-0.128906 l 0.382812,-1.039063 c 0.01953,-0.05469 0.05469,-0.05859 0.08594,-0.03125 l 1.949219,2.292969 1.535156,0.566406 c 0.03516,0.01172 0.05078,0.04687 0.03516,0.08984 l -0.386719,1.050781"
         id="path49" />
    </g>
    <path
       inkscape:connector-curvature="0"
       style="fill:#21214c;fill-opacity:1;fill-rule:nonzero;stroke:none"
       d="M 4.050781,41.472656 4.042969,40.1875 C 4.039063,39.492188 3.703125,39.128906 3.1875,39.128906 2.667969,39.132813 2.328125,39.5 2.332031,40.195313 l 0.00391,1.285156 c 0,0.02734 0.015625,0.04297 0.039062,0.04297 l 1.636719,-0.0078 c 0.023437,0 0.039062,-0.01563 0.039062,-0.04297 z M 1.984375,40.234375 C 1.980469,39.574219 1.644531,39.214844 1.164063,39.21875 0.660156,39.22265 0.347656,39.582031 0.347656,40.242188 l 0.007813,1.25 c 0,0.02734 0.011719,0.04297 0.039062,0.04297 l 1.554688,-0.0078 c 0.027344,-0.0039 0.039062,-0.01563 0.039062,-0.04297 z m -1.9140625,1.710938 c -0.0390625,0 -0.0625,-0.02734 -0.0625,-0.07422 L 0,40.238281 C -0.00390625,39.3125 0.4375,38.8125 1.132813,38.808594 c 0.535156,0 0.867187,0.300781 0.988281,0.75 h 0.015625 c 0.0625,-0.359375 0.402344,-0.835938 1.039062,-0.835938 0.757813,-0.0039 1.210938,0.53125 1.214844,1.492188 l 0.00781,1.636719 c 0,0.04297 -0.023438,0.07031 -0.0625,0.07031 l -4.2656255,0.02344"
       id="path53" />
    <path
       inkscape:connector-curvature="0"
       style="fill:#21214c;fill-opacity:1;fill-rule:nonzero;stroke:none"
       d="M 1.761719,33.632813 C 1.21875,33.558594 0.851563,33.898438 0.753906,34.589844 l -0.171875,1.238281 c -0.003906,0.02734 0.007813,0.04297 0.03125,0.04687 l 1.640625,0.226563 c 0.023438,0.0039 0.039063,-0.0078 0.042969,-0.03906 L 2.46875,34.828125 C 2.566406,34.136719 2.3125,33.710938 1.761719,33.632813 Z m 3.167969,0.332031 c -0.00781,0.04297 -0.023438,0.0625 -0.070313,0.07813 l -2.03125,0.753906 -0.011719,0.07031 -0.171875,1.246093 c -0.00781,0.02734 0.00391,0.04297 0.03125,0.04687 l 1.84375,0.257813 c 0.039063,0.0039 0.0625,0.03516 0.054688,0.07813 L 4.539063,36.757813 C 4.53125,36.800781 4.5,36.828125 4.460938,36.820313 L 0.234375,36.238281 C 0.199219,36.230469 0.175781,36.199219 0.183594,36.15625 L 0.410156,34.535156 C 0.535156,33.625 1.078125,33.125 1.820313,33.230469 c 0.601562,0.08203 0.964843,0.511719 1.011718,1.148437 l 2.078125,-0.789062 c 0.039063,-0.01953 0.070313,0.0039 0.0625,0.04687 l -0.042968,0.328125"
       id="path55" />
    <path
       inkscape:connector-curvature="0"
       style="fill:#21214c;fill-opacity:1;fill-rule:nonzero;stroke:none"
       d="M 1.25,30.5 C 1.210938,30.48828 1.195313,30.45313 1.207031,30.41406 l 0.769532,-2.6875 C 1.988281,27.68359 2.023438,27.66406 2.0625,27.67578 l 0.207031,0.05859 c 0.039063,0.01172 0.054688,0.04687 0.042969,0.08984 l -0.664062,2.320312 c -0.00781,0.02734 0,0.04297 0.023437,0.05078 L 3.175781,30.625 c 0.023438,0.0078 0.042969,-0.0039 0.050782,-0.03125 l 0.570312,-1.996094 c 0.011719,-0.03906 0.046875,-0.05859 0.082031,-0.05078 l 0.210938,0.0625 c 0.039062,0.01172 0.054687,0.04297 0.042969,0.08594 L 3.5625,30.691406 c -0.011719,0.02734 0,0.04687 0.023438,0.05078 l 1.566406,0.449218 c 0.023437,0.0078 0.039062,-0.0039 0.046875,-0.03125 l 0.667969,-2.320312 c 0.011718,-0.03906 0.042968,-0.0625 0.082031,-0.05078 l 0.210937,0.0625 c 0.035157,0.0078 0.050782,0.04297 0.039063,0.08594 l -0.769531,2.683594 c -0.011719,0.04297 -0.042969,0.0625 -0.082032,0.05469 L 1.25,30.5"
       id="path57" />
    <path
       inkscape:connector-curvature="0"
       style="fill:#21214c;fill-opacity:1;fill-rule:nonzero;stroke:none"
       d="m 6.441406,24.367188 -2.46875,-0.09766 -0.011718,0.01953 1.734375,1.773437 z M 3.398438,24.257813 C 3.367188,24.230469 3.355469,24.195313 3.375,24.152344 l 0.101563,-0.234375 c 0.019531,-0.04687 0.054687,-0.05469 0.09375,-0.05078 L 8.15625,24.04297 c 0.039063,0.0039 0.054688,0.03516 0.039063,0.07422 l -0.113282,0.253906 c -0.023437,0.04687 -0.046875,0.06641 -0.097656,0.05859 l -1.160156,-0.04297 -0.859375,1.941406 0.8125,0.832031 c 0.039062,0.04297 0.039062,0.07422 0.023437,0.113282 L 6.6875,27.527344 c -0.019531,0.03906 -0.050781,0.05078 -0.082031,0.01953 L 3.398438,24.257813"
       id="path59" />
    <path
       inkscape:connector-curvature="0"
       style="fill:#21214c;fill-opacity:1;fill-rule:nonzero;stroke:none"
       d="M 5.363281,20.304688 C 5.328125,20.28125 5.324219,20.246094 5.34375,20.207031 l 0.140625,-0.222656 c 0.023438,-0.03906 0.0625,-0.05078 0.09375,-0.02734 L 7.726563,21.292969 6.804688,17.976563 C 6.792969,17.921875 6.792969,17.886719 6.820313,17.84375 L 7,17.558594 c 0.019531,-0.03906 0.066406,-0.03516 0.074219,0.01172 l 0.59375,2.1875 3.078125,-0.04687 c 0.04687,-0.0039 0.0625,0.03125 0.04297,0.07031 l -0.171875,0.273438 c -0.02734,0.04297 -0.05859,0.05859 -0.105469,0.0625 l -2.738281,0.02734 0.382812,1.414063 1.042969,0.648437 c 0.03125,0.02344 0.039062,0.05859 0.015625,0.09766 L 9.07422,22.527348 c -0.023438,0.03906 -0.0625,0.05078 -0.09375,0.02734 l -3.617188,-2.25"
       id="path61" />
    <path
       inkscape:connector-curvature="0"
       style="fill:#21214c;fill-opacity:1;fill-rule:nonzero;stroke:none"
       d="M 8.46875,15.703125 C 8.4375,15.679688 8.4375,15.640625 8.460938,15.605469 L 8.625,15.398438 c 0.027344,-0.03516 0.066406,-0.04297 0.097656,-0.01953 l 3.363282,2.628907 c 0.02734,0.02344 0.03125,0.05859 0.0039,0.09375 L 11.925781,18.3125 c -0.02344,0.03516 -0.0625,0.03906 -0.09375,0.01563 l -3.363281,-2.625"
       id="path63" />
    <path
       inkscape:connector-curvature="0"
       style="fill:#21214c;fill-opacity:1;fill-rule:nonzero;stroke:none"
       d="m 10.414063,13.332031 c -0.02734,-0.02734 -0.02344,-0.06641 0.0039,-0.09766 l 0.1875,-0.1875 c 0.03516,-0.03516 0.07422,-0.05859 0.132812,-0.04297 l 4.28125,0.789063 0.01563,-0.01563 -2.574218,-2.523438 c -0.03125,-0.02734 -0.02734,-0.06641 0.0039,-0.09766 l 0.183594,-0.1875 c 0.03125,-0.03125 0.07031,-0.03516 0.09766,-0.0078 l 3.042969,2.980468 c 0.02734,0.02734 0.02734,0.06641 -0.0039,0.09766 l -0.195312,0.199218 c -0.03125,0.03125 -0.07031,0.05469 -0.132813,0.04297 l -4.273437,-0.808594 -0.01953,0.01953 2.582031,2.527343 c 0.02734,0.03125 0.02734,0.06641 -0.0039,0.09766 l -0.1875,0.191406 c -0.02734,0.02734 -0.07031,0.03125 -0.09375,0.0039 l -3.046875,-2.980469"
       id="path65" />
    <path
       inkscape:connector-curvature="0"
       style="fill:#21214c;fill-opacity:1;fill-rule:nonzero;stroke:none"
       d="M 15.933594,10.96875 C 15.472656,10.359375 15.34375,10.089844 15.273438,9.867188 15.066406,9.203125 15.308598,8.597656 15.945313,8.117188 16.578125,7.636719 17.1875,7.621094 17.65625,7.84375 17.6875,7.859375 17.70703,7.886719 17.68359,7.925781 L 17.5625,8.148438 c -0.01953,0.03125 -0.05469,0.046875 -0.08984,0.035156 -0.4375,-0.171875 -0.859375,-0.136719 -1.324218,0.214844 -0.480469,0.367187 -0.648438,0.820312 -0.5,1.316406 0.05078,0.171875 0.175781,0.417969 0.617187,1 0.441406,0.582031 0.644531,0.769531 0.796875,0.863281 0.433594,0.28125 0.917969,0.238281 1.398438,-0.125 0.46875,-0.355469 0.652343,-0.8125 0.507812,-1.304687 -0.05078,-0.171875 -0.160156,-0.402344 -0.414062,-0.738282 -0.01563,-0.019531 -0.03516,-0.023437 -0.05859,-0.00391 l -0.882813,0.667969 c -0.03125,0.02344 -0.07031,0.01953 -0.09375,-0.01172 L 17.390625,9.894531 c -0.02344,-0.03125 -0.01953,-0.070312 0.01563,-0.09375 l 1.1875,-0.898437 C 18.625,8.875 18.664063,8.878906 18.6875,8.910156 l 0.160156,0.210938 c 0.265625,0.351562 0.421875,0.652344 0.488282,0.855469 0.210937,0.660156 -0.03516,1.277343 -0.660157,1.75 -0.632812,0.480468 -1.28125,0.550781 -1.867187,0.175781 -0.195313,-0.128906 -0.414063,-0.328125 -0.875,-0.933594"
       id="path67" />
    <path
       inkscape:connector-curvature="0"
       style="fill:#21214c;fill-opacity:1;fill-rule:nonzero;stroke:none"
       d="m 22.09375,4.386719 c -0.01563,-0.035156 0,-0.070313 0.03906,-0.085938 L 22.371094,4.1875 c 0.04687,-0.019531 0.09375,-0.027344 0.140625,0.00781 l 3.714844,2.277343 0.01953,-0.011718 -1.5,-3.285157 c -0.01563,-0.035156 0,-0.070312 0.03906,-0.089843 L 25.027341,2.97656 c 0.03906,-0.015625 0.07422,-0.00391 0.09375,0.03125 l 1.769531,3.878906 c 0.01563,0.035156 0,0.070312 -0.03906,0.085937 L 26.59375,7.089844 c -0.03906,0.019531 -0.08203,0.023437 -0.136719,-0.00781 l -3.695312,-2.289062 -0.02734,0.011719 1.5,3.292968 c 0.01563,0.035157 0,0.070313 -0.03906,0.089844 l -0.242188,0.109375 c -0.03906,0.015625 -0.07422,0.00391 -0.08984,-0.03125 L 22.09375,4.386719"
       id="path69" />
    <path
       inkscape:connector-curvature="0"
       style="fill:#21214c;fill-opacity:1;fill-rule:nonzero;stroke:none"
       d="m 27.722656,2.0625 c -0.01172,-0.035156 0.0078,-0.070312 0.05078,-0.082031 l 2.683593,-0.785156 c 0.03906,-0.011719 0.07422,0.00391 0.08594,0.042968 l 0.0625,0.210938 c 0.0078,0.035156 -0.01172,0.070312 -0.05078,0.082031 l -2.320313,0.675781 c -0.02344,0.00781 -0.03516,0.027344 -0.02734,0.050782 l 0.4375,1.5 c 0.0078,0.027343 0.02344,0.035156 0.05078,0.027343 L 30.6875,3.199219 c 0.04297,-0.011719 0.07813,0.00391 0.08984,0.042969 l 0.0625,0.210937 c 0.0078,0.035156 -0.01172,0.070313 -0.05469,0.082031 l -1.992187,0.582032 c -0.02734,0.011718 -0.03906,0.027343 -0.03125,0.050781 l 0.457031,1.5625 c 0.0078,0.027344 0.02344,0.035156 0.05078,0.027344 l 2.320313,-0.679688 c 0.03906,-0.011719 0.07422,0.00391 0.08594,0.042969 l 0.05859,0.210937 c 0.01172,0.035157 -0.0078,0.070313 -0.05078,0.082032 l -2.679688,0.785156 c -0.04297,0.011719 -0.07813,-0.00391 -0.08984,-0.042969 L 27.722656,2.0625"
       id="path71" />
    <path
       inkscape:connector-curvature="0"
       style="fill:#21214c;fill-opacity:1;fill-rule:nonzero;stroke:none"
       d="m 36.984375,4.539063 c -0.04297,0.00781 -0.06641,-0.011719 -0.08594,-0.054688 L 35.3125,1.054688 35.29687,1.058598 34.60937,4.773442 C 34.60157,4.820317 34.58203,4.843754 34.53906,4.84766 L 34.3125,4.875 C 34.26953,4.88281 34.23437,4.859375 34.21875,4.824219 L 32.535156,0.742188 c -0.01563,-0.042969 0,-0.070313 0.05078,-0.078125 l 0.257812,-0.03125 c 0.05469,-0.007813 0.08594,0.007812 0.09766,0.050781 l 1.410157,3.472656 0.01172,-0.00391 0.667969,-3.730469 c 0.0078,-0.046875 0.02734,-0.070312 0.07422,-0.074219 l 0.214844,-0.027343 c 0.05078,-0.007813 0.07422,0.007812 0.09375,0.050781 L 37,3.820313 h 0.01563 l 0.480469,-3.710938 c 0.0078,-0.0507812 0.02734,-0.0664062 0.08594,-0.0742187 l 0.253907,-0.03125005 c 0.05078,-0.0078125 0.07422,0.01562505 0.06641,0.06250005 L 37.289063,4.4375 c -0.0039,0.039063 -0.02734,0.066406 -0.07031,0.074219 l -0.234375,0.027344"
       id="path73" />
    <path
       inkscape:connector-curvature="0"
       style="fill:#21214c;fill-opacity:1;fill-rule:nonzero;stroke:none"
       d="m 42.632813,2.238281 c 0.07813,-0.757812 0.167968,-1.042968 0.269531,-1.25 0.304687,-0.625 0.894531,-0.9023435 1.6875,-0.816406 0.792969,0.082031 1.25,0.484375 1.4375,0.96875 0.01172,0.03125 0.0078,0.0625 -0.03906,0.078125 L 45.75,1.296875 c -0.03516,0.011719 -0.07031,0 -0.08984,-0.035156 C 45.460938,0.839844 45.125,0.578125 44.546875,0.515625 43.949219,0.453125 43.511719,0.667969 43.28125,1.128906 43.20312,1.292969 43.121094,1.554688 43.046875,2.28125 c -0.07813,0.726563 -0.05469,1 -0.0078,1.175781 0.128906,0.5 0.507812,0.800782 1.109375,0.863282 0.585937,0.0625 1.035156,-0.144532 1.261718,-0.601563 0.08203,-0.160156 0.160157,-0.40625 0.203125,-0.824219 0.0039,-0.023437 -0.01172,-0.039062 -0.03906,-0.042968 L 44.472656,2.738281 c -0.04297,-0.00391 -0.06641,-0.035156 -0.0625,-0.074218 l 0.01953,-0.210938 c 0.0039,-0.039062 0.03516,-0.0625 0.07813,-0.058594 l 1.480468,0.15625 c 0.04297,0.00391 0.07031,0.035157 0.06641,0.070313 l -0.02734,0.265625 C 45.980469,3.324219 45.886719,3.652344 45.796875,3.84375 45.5,4.46875 44.898438,4.75 44.121094,4.667969 43.328125,4.585938 42.804688,4.191406 42.636719,3.519531 c -0.05469,-0.226562 -0.08203,-0.523437 -0.0039,-1.28125"
       id="path75" />
    <path
       inkscape:connector-curvature="0"
       style="fill:#21214c;fill-opacity:1;fill-rule:nonzero;stroke:none"
       d="M 51.191406,2.742188 C 51.328125,2.210938 51.03125,1.808594 50.355469,1.636719 l -1.210938,-0.3125 c -0.02734,-0.00781 -0.04687,0.00391 -0.05078,0.027344 l -0.410156,1.605468 c -0.0039,0.023438 0.0039,0.039063 0.03516,0.046875 L 49.925781,3.3125 c 0.675782,0.175781 1.128907,-0.03125 1.265625,-0.570312 z M 50.511719,5.851563 C 50.46875,5.839844 50.453125,5.824219 50.445313,5.773438 L 49.917969,3.671875 49.847656,3.652344 48.632813,3.34375 c -0.03125,-0.00781 -0.04687,0 -0.05469,0.023438 l -0.457031,1.804687 c -0.01172,0.039063 -0.04297,0.058594 -0.08594,0.046875 L 47.777344,5.152344 c -0.04297,-0.011719 -0.0625,-0.042969 -0.05469,-0.078125 L 48.777344,0.9375 c 0.0078,-0.039062 0.04297,-0.054687 0.08203,-0.042969 l 1.589844,0.402344 c 0.890626,0.230469 1.32422,0.820313 1.140626,1.546875 C 51.441406,3.433594 50.972656,3.75 50.335938,3.726563 L 50.882813,5.875 c 0.01953,0.042969 -0.0078,0.070313 -0.05078,0.058594 L 50.511719,5.851563"
       id="path77" />
    <path
       inkscape:connector-curvature="0"
       style="fill:#21214c;fill-opacity:1;fill-rule:nonzero;stroke:none"
       d="m 56.464844,4.488281 c 0.01953,-0.515625 -0.246094,-0.90625 -0.804688,-1.136718 -0.5625,-0.234375 -1.027343,-0.148438 -1.378906,0.230468 -0.125,0.136719 -0.289062,0.375 -0.5625,1.03125 -0.269531,0.65625 -0.328125,0.941407 -0.332031,1.128907 -0.02344,0.515625 0.246094,0.90625 0.808594,1.140625 0.558593,0.230468 1.019531,0.144531 1.371093,-0.234375 0.125,-0.136719 0.289063,-0.378907 0.5625,-1.035157 0.273438,-0.65625 0.328125,-0.9375 0.335938,-1.125 z m -3.484375,1.195313 c 0.0078,-0.246094 0.06641,-0.53125 0.355469,-1.230469 0.289062,-0.695312 0.453125,-0.9375 0.621093,-1.117187 0.464844,-0.507813 1.101563,-0.613282 1.835938,-0.308594 0.730469,0.304687 1.105469,0.832031 1.074219,1.515625 -0.0078,0.25 -0.06641,0.535156 -0.355469,1.230469 -0.289063,0.699218 -0.453125,0.941406 -0.617188,1.121093 -0.46875,0.503907 -1.105468,0.613282 -1.835937,0.308594 C 53.324219,6.898438 52.953125,6.371094 52.980469,5.683594"
       id="path79" />
    <path
       inkscape:connector-curvature="0"
       style="fill:#21214c;fill-opacity:1;fill-rule:nonzero;stroke:none"
       d="M 58.460938,7.5625 C 58.035156,8.273438 58.226563,8.855469 58.894531,9.253906 59.5625,9.65625 60.167969,9.550781 60.59375,8.84375 l 1.449219,-2.414062 c 0.01953,-0.035157 0.05469,-0.042969 0.09375,-0.019532 l 0.226562,0.136719 c 0.03906,0.023438 0.04687,0.058594 0.03125,0.089844 L 60.949219,9.046875 C 60.398438,9.96875 59.582031,10.074219 58.714844,9.554688 57.851563,9.035156 57.5625,8.265625 58.113281,7.347656 L 59.554688,4.9375 c 0.02344,-0.035156 0.05859,-0.042969 0.09766,-0.019531 l 0.226562,0.136719 c 0.03516,0.023437 0.04687,0.058593 0.02734,0.09375 L 58.460938,7.5625"
       id="path81" />
    <path
       inkscape:connector-curvature="0"
       style="fill:#21214c;fill-opacity:1;fill-rule:nonzero;stroke:none"
       d="m 64.625,8.207031 c 0.02344,-0.027343 0.0625,-0.03125 0.09375,-0.00391 L 64.925781,8.375 c 0.03906,0.03125 0.0625,0.066406 0.05469,0.125 l -0.414063,4.339844 0.01563,0.01563 L 66.875,10.0625 c 0.02734,-0.02734 0.0625,-0.03125 0.09766,-0.0039 l 0.203125,0.171875 c 0.03516,0.02734 0.03906,0.06641 0.01563,0.09375 L 64.480478,13.6211 c -0.02344,0.02734 -0.0625,0.03125 -0.09375,0.0039 l -0.21875,-0.179687 c -0.03125,-0.02734 -0.05859,-0.06641 -0.05078,-0.128907 L 64.550781,8.984375 64.53125,8.96875 62.230469,11.761719 c -0.02344,0.03125 -0.0625,0.03516 -0.09766,0.0078 l -0.203125,-0.171875 c -0.03516,-0.02734 -0.03906,-0.06641 -0.01563,-0.09375 L 64.625,8.207031"
       id="path83" />
    <path
       inkscape:connector-curvature="0"
       style="fill:#21214c;fill-opacity:1;fill-rule:nonzero;stroke:none"
       d="m 66.527344,15.246094 0.734375,0.808594 c 0.421875,0.46875 0.847656,0.644531 1.3125,0.460937 0.210937,-0.08203 0.402344,-0.207031 0.953125,-0.707031 0.554687,-0.5 0.699219,-0.675781 0.804687,-0.878906 0.230469,-0.4375 0.09766,-0.882813 -0.324218,-1.351563 l -0.730469,-0.8125 c -0.01953,-0.01953 -0.03906,-0.02344 -0.05859,-0.0039 l -2.6875,2.425781 c -0.02344,0.01563 -0.01953,0.03516 -0.0039,0.05859 z m 2.65625,-3.003906 c 0.02734,-0.02734 0.07031,-0.02344 0.09766,0.0078 l 1.023438,1.136719 c 0.542968,0.601562 0.683593,1.191406 0.382812,1.753906 -0.128906,0.242188 -0.285156,0.441406 -0.878906,0.976563 -0.597656,0.539062 -0.808594,0.671875 -1.0625,0.773437 -0.589844,0.242188 -1.164063,0.04297 -1.707031,-0.558594 l -1.023438,-1.136718 c -0.03125,-0.03125 -0.03125,-0.07031 0,-0.09375 l 3.167969,-2.859375"
       id="path85" />
    <path
       inkscape:connector-curvature="0"
       style="fill:#21214c;fill-opacity:1;fill-rule:nonzero;stroke:none"
       d="m 58.949219,52.71875 c -1.09375,-0.488281 -2.234375,-0.898437 -4.09375,-2.03125 -5.226563,-3.183594 -6.816406,-7.925781 -3.878906,-16.195312 1.703125,-4.792969 2.519531,-8.828125 2.097656,-13.1875 -0.05859,-0.03906 -0.117188,-0.07422 -0.175781,-0.113282 -0.277344,5.46875 -2.292969,8.871094 -5.90625,14.632813 -7.65625,12.199219 0.117187,21.140625 3.808593,23.921875 3.257813,-1.640625 6.054688,-4.066406 8.148438,-7.027344"
       id="path87" />
    <path
       inkscape:connector-curvature="0"
       style="fill:#21214c;fill-opacity:1;fill-rule:nonzero;stroke:none"
       d="m 43.445313,35.378906 c 5.902343,-6.949218 7.820312,-10.15625 8.21875,-14.933593 -0.0625,-0.03516 -0.125,-0.07422 -0.1875,-0.109375 -1.367188,5.71875 -4.796875,8.75 -13.835938,14.773437 -9.738281,6.480469 -9.300781,17.628906 -6.820312,24.566406 3.019531,1.546875 6.4375,2.429688 10.0625,2.429688 0.773437,0 1.535156,-0.04297 2.289062,-0.121094 -7.03125,-10.664062 -6.542969,-18.585937 0.273438,-26.605469"
       id="path89" />
    <path
       inkscape:connector-curvature="0"
       style="fill:#21214c;fill-opacity:1;fill-rule:nonzero;stroke:none"
       d="m 39.835938,30.25 c 6.519531,-2.828125 9.613281,-7.125 10.503906,-10.492187 -0.05469,-0.02734 -0.113281,-0.05469 -0.171875,-0.07813 -2.839844,5.9375 -8.503906,6.925781 -18.191406,8.226562 -5.746094,0.769531 -10.210938,4.058594 -12.90625,8.132813 -0.21875,1.242187 -0.335938,2.519531 -0.335938,3.828125 0,5.292968 1.847656,10.152343 4.921875,13.96875 C 23.382813,37.207031 32.019531,33.640625 39.835938,30.25"
       id="path91" />
  </g>
</svg>
